<svg width="210" height="200" viewBox="0 0 210 200" fill="none" xmlns="http://www.w3.org/2000/svg">
<path d="M169.304 157.23C169.304 157.23 177.047 136.457 162.924 121.383C162.924 121.383 181.664 105.357 210 122.064C210 122.064 194.114 121.793 188.275 132.651C182.435 143.508 176.406 154.105 169.304 157.23Z" fill="#891107"/>
<path d="M157.365 167.536C157.365 167.536 182.155 138.169 141.118 107.951C129.448 99.6332 118.483 90.3671 108.335 80.2475C103.334 75.3552 98.6781 70.121 94.4029 64.5826C83.7256 50.5102 79.3685 32.8121 79.659 15.084C79.659 12.7202 79.7792 10.3665 79.8793 8.01273C79.9795 5.90939 79.4286 1.90302 80.3401 0C80.3401 0 53.2963 55.378 112.322 101.221C112.322 101.221 143.663 125.069 148.971 134.083C154.28 143.097 160.911 148.296 157.365 167.536Z" fill="#854B26"/>
<path d="M147.208 177.812C147.208 177.812 175.123 154.936 120.735 113.58C120.735 113.58 77.225 84.1737 76.2835 63.7513C76.2835 63.7513 72.5574 96.4232 106.683 119.84C117.701 128.775 128.899 137.719 138.895 147.755C147.268 156.098 149.051 166.324 147.208 177.812Z" fill="#C48B61"/>
<path d="M88.0425 108.552C88.0425 108.552 99.5111 121.643 110.078 129.586C117.39 135.065 124.852 140.443 131.843 146.483C133.753 148.142 135.535 149.943 137.172 151.871C140.978 156.358 144.183 161.827 144.474 167.837C144.965 178.524 135.78 186.176 127.366 191.033C109.567 201.31 88.5233 202.432 69.202 196.041C62.4812 193.828 55.4698 191.825 48.7589 189.241C42.021 186.701 34.9196 185.257 27.7249 184.964C23.0273 184.753 18.3197 184.743 13.6321 184.964C11.2783 185.064 8.93446 185.234 6.62072 185.455C5.6191 185.545 0.470762 185.515 0 186.246C0 186.246 16.4166 160.535 69.4224 184.243C83.986 190.763 96.0856 191.574 112.853 189.13C125.022 187.358 142.811 172.774 130 160.605C128.167 158.872 126.104 157.41 124.161 155.807C121.156 153.344 118.051 151.04 114.876 148.796C112.873 147.394 110.869 146.032 108.866 144.7C106.583 143.197 98.1088 135.856 96.0655 134.063C88.8802 127.697 85.7945 117.885 88.0425 108.552Z" fill="#891107"/>
<path d="M117.4 181.348C116.399 181.859 114.886 181.458 113.814 181.348C110.176 181.115 106.554 180.67 102.967 180.016C95.6048 178.494 89.8055 173.946 83.325 170.431C70.5443 163.5 57.2127 157.781 42.4087 159.994C35.187 161.086 28.0555 163.76 22.5666 168.688C23.1876 168.127 25.7217 168.257 26.4929 168.177C29.9646 167.839 33.4518 167.685 36.9399 167.716C47.1764 167.807 57.6033 169.409 66.9885 173.576C72.2871 175.929 76.9346 179.285 82.4435 181.278C93.3612 185.214 106.703 186.677 117.4 181.348Z" fill="#C48B61"/>
<path d="M125.764 175.208C125.764 175.208 117.4 174.567 94.2425 159.634C94.2425 159.634 68.2004 138.179 48.2982 154.275C49.0093 153.704 51.8539 154.045 52.6953 154.025C63.0821 153.764 72.7277 157.881 81.7423 162.478C88.6335 165.964 93.6416 168.988 100.693 172.153C106.452 174.738 114.055 177.222 120.515 176.16C122.278 175.819 124.011 175.128 125.764 175.208Z" fill="#854B26"/>
</svg>
