<svg width="1163" height="200" viewBox="0 0 1163 200" fill="none" xmlns="http://www.w3.org/2000/svg">
<path d="M169.304 157.23C169.304 157.23 177.047 136.457 162.924 121.383C162.924 121.383 181.664 105.357 210 122.064C210 122.064 194.114 121.793 188.275 132.651C182.435 143.508 176.406 154.105 169.304 157.23Z" fill="#891107"/>
<path d="M157.365 167.536C157.365 167.536 182.155 138.169 141.118 107.951C129.448 99.6332 118.483 90.3671 108.335 80.2475C103.334 75.3552 98.6781 70.121 94.4029 64.5826C83.7256 50.5102 79.3685 32.8121 79.659 15.084C79.659 12.7202 79.7792 10.3665 79.8793 8.01273C79.9795 5.90939 79.4286 1.90302 80.3401 0C80.3401 0 53.2963 55.378 112.322 101.221C112.322 101.221 143.663 125.069 148.971 134.083C154.28 143.097 160.911 148.296 157.365 167.536Z" fill="#854B26"/>
<path d="M147.208 177.812C147.208 177.812 175.123 154.936 120.735 113.58C120.735 113.58 77.225 84.1737 76.2835 63.7513C76.2835 63.7513 72.5574 96.4232 106.683 119.84C117.701 128.775 128.899 137.719 138.895 147.755C147.268 156.098 149.051 166.324 147.208 177.812Z" fill="#C48B61"/>
<path d="M88.0425 108.552C88.0425 108.552 99.5111 121.643 110.078 129.586C117.39 135.065 124.852 140.443 131.843 146.483C133.753 148.142 135.535 149.943 137.172 151.871C140.978 156.358 144.183 161.827 144.474 167.837C144.965 178.524 135.78 186.176 127.366 191.033C109.567 201.31 88.5233 202.432 69.202 196.041C62.4812 193.828 55.4698 191.825 48.7589 189.241C42.021 186.701 34.9196 185.257 27.7249 184.964C23.0273 184.753 18.3197 184.743 13.6321 184.964C11.2783 185.064 8.93446 185.234 6.62072 185.455C5.6191 185.545 0.470762 185.515 0 186.246C0 186.246 16.4166 160.535 69.4224 184.243C83.986 190.763 96.0856 191.574 112.853 189.13C125.022 187.358 142.811 172.774 130 160.605C128.167 158.872 126.104 157.41 124.161 155.807C121.156 153.344 118.051 151.04 114.876 148.796C112.873 147.394 110.869 146.032 108.866 144.7C106.583 143.197 98.1088 135.856 96.0655 134.063C88.8802 127.697 85.7945 117.885 88.0425 108.552Z" fill="#891107"/>
<path d="M117.4 181.348C116.399 181.859 114.886 181.458 113.814 181.348C110.176 181.115 106.554 180.67 102.967 180.016C95.6048 178.494 89.8055 173.946 83.325 170.431C70.5443 163.5 57.2127 157.781 42.4087 159.994C35.187 161.086 28.0555 163.76 22.5666 168.688C23.1876 168.127 25.7217 168.257 26.4929 168.177C29.9646 167.839 33.4518 167.685 36.9399 167.716C47.1764 167.807 57.6033 169.409 66.9885 173.576C72.2871 175.929 76.9346 179.285 82.4435 181.278C93.3612 185.214 106.703 186.677 117.4 181.348Z" fill="#C48B61"/>
<path d="M125.764 175.208C125.764 175.208 117.4 174.567 94.2425 159.634C94.2425 159.634 68.2004 138.18 48.2982 154.275C49.0093 153.704 51.8539 154.045 52.6953 154.025C63.0821 153.764 72.7277 157.881 81.7423 162.478C88.6335 165.964 93.6416 168.988 100.693 172.153C106.452 174.738 114.055 177.222 120.515 176.16C122.278 175.819 124.011 175.128 125.764 175.208Z" fill="#854B26"/>
<mask id="path-7-outside-1_21_14" maskUnits="userSpaceOnUse" x="241" y="63" width="922" height="99" fill="black">
<rect fill="white" x="241" y="63" width="922" height="99"/>
<path d="M337.207 72.9645C342.805 72.9645 345.604 75.0071 345.604 79.0922C345.604 80.0757 345.453 81.0213 345.15 81.9291C344.848 82.7612 344.507 83.4043 344.129 83.8582C342.767 83.3286 340.687 83.0638 337.888 83.0638C329.718 83.0638 321.925 85.8629 314.512 91.461C307.173 96.9835 300.894 104.284 295.674 113.362C290.53 122.364 287.05 131.858 285.235 141.844C284.856 144.113 284.365 147.82 283.759 152.965L283.306 156.482C283.154 157.314 282.889 157.882 282.511 158.184C282.209 158.411 281.755 158.525 281.149 158.525C278.577 158.525 276.232 158.6 274.114 158.752C272.071 158.979 270.369 159.395 269.007 160C268.629 159.47 268.44 159.054 268.44 158.752C271.466 153.759 273.773 147.215 275.362 139.121C277.026 131.026 277.859 123.499 277.859 116.539C277.859 107.915 276.459 101.106 273.66 96.1135C270.861 91.0449 266.473 88.5106 260.497 88.5106C256.865 88.5106 253.915 89.4563 251.646 91.3475C249.452 93.1631 247.106 95.9622 244.61 99.7447C243.778 99.4421 243.135 98.9125 242.681 98.156C242.227 97.3239 242 96.4161 242 95.4326C242 93.3901 242.832 91.0071 244.496 88.2837C246.236 85.4846 248.657 83.1017 251.759 81.1348C254.936 79.0922 258.605 78.0709 262.766 78.0709C270.029 78.0709 275.589 81.2861 279.447 87.7163C283.306 94.0709 285.235 102.733 285.235 113.702C285.235 115.064 285.159 117.106 285.008 119.83C288.488 111.811 293.14 104.208 298.965 97.0213C304.866 89.7589 311.183 83.9338 317.916 79.5461C324.725 75.1584 331.155 72.9645 337.207 72.9645Z"/>
<path d="M381.939 132.539C383.225 133.144 383.868 134.014 383.868 135.149C383.868 138.553 381.863 142.147 377.854 145.929C373.92 149.636 369.003 152.775 363.102 155.348C357.277 157.844 351.868 159.092 346.875 159.092C342.789 159.092 339.31 158.26 336.435 156.596C333.56 154.931 331.366 153.078 329.853 151.035C328.416 148.917 327.697 147.366 327.697 146.383C328.227 144.416 328.718 142.071 329.172 139.348C329.702 136.624 330.08 134.733 330.307 133.674C330.534 132.312 330.799 130.723 331.101 128.908C331.48 127.017 331.934 124.861 332.463 122.44C332.766 120.927 334.09 119.262 336.435 117.447C338.78 115.556 341.428 114.005 344.378 112.794C347.404 111.508 349.901 110.865 351.868 110.865C353.532 110.865 355.499 111.319 357.768 112.227C360.114 113.135 362.118 114.421 363.783 116.085C365.447 117.674 366.279 119.565 366.279 121.759C366.279 124.558 364.88 127.281 362.081 129.929C359.357 132.577 355.877 134.771 351.641 136.511C347.404 138.175 343.243 139.083 339.158 139.234L338.25 144C338.477 146.345 339.574 148.388 341.541 150.128C343.508 151.792 346.459 152.624 350.392 152.624C354.175 152.624 358.109 151.754 362.194 150.014C366.355 148.274 370.175 145.891 373.655 142.865C377.211 139.764 379.972 136.322 381.939 132.539ZM350.846 115.631C348.955 115.631 347.102 116.539 345.286 118.355C343.546 120.17 342.449 121.986 341.995 123.801L340.066 134.128C344.605 133.825 348.463 132.501 351.641 130.156C354.818 127.811 356.407 125.05 356.407 121.872C356.407 119.981 355.839 118.468 354.705 117.333C353.645 116.199 352.359 115.631 350.846 115.631ZM384.435 64C385.268 64 386.516 64.4161 388.18 65.2482C389.92 66.0047 390.79 66.6856 390.79 67.2908C390.79 67.5934 390.336 68.1608 389.428 68.9929L374.336 81.0213C373.201 81.8534 372.445 82.4586 372.066 82.8369C371.613 83.2151 371.083 83.4043 370.478 83.4043C369.873 83.4043 369.192 83.026 368.435 82.2695C371.991 78.4113 374.639 75.4232 376.379 73.305C378.194 71.1111 380.388 68.3121 382.96 64.9078C383.414 64.3026 383.906 64 384.435 64ZM357.995 75.5745C359.584 75.5745 360.719 76.1418 361.4 77.2766C362.459 78.9409 364.01 82.4586 366.052 87.8298C368.095 93.2009 369.116 96.5295 369.116 97.8156C369.116 98.7234 368.36 99.6312 366.847 100.539C365.334 101.371 363.934 101.787 362.648 101.787C360.53 94.2979 358.563 88.435 356.747 84.1986C352.057 89.7967 348.199 94.9031 345.172 99.5177C343.811 99.3664 342.638 98.9125 341.655 98.156C340.671 97.3239 340.217 96.4161 340.293 95.4326C340.369 94.7518 340.709 93.9575 341.314 93.0496C344.113 88.5106 348.312 83.4421 353.91 77.844C354.894 76.8605 355.612 76.2553 356.066 76.0284C356.52 75.7258 357.163 75.5745 357.995 75.5745Z"/>
<path d="M438.447 133.106C439.128 133.106 439.657 133.371 440.035 133.901C440.414 134.355 440.603 134.96 440.603 135.716C440.603 137.759 439.317 140.785 436.745 144.794C434.248 148.728 430.882 152.246 426.645 155.348C422.409 158.374 417.718 159.887 412.574 159.887C408.64 159.887 405.576 158.941 403.383 157.05C401.264 155.083 400.205 152.511 400.205 149.333C400.205 147.442 400.546 145.097 401.226 142.298C401.983 139.499 403.004 135.981 404.29 131.745C405.501 127.811 406.484 124.293 407.241 121.191C407.165 120.738 406.862 120.511 406.333 120.511C405.274 120.511 403.231 121.872 400.205 124.596C397.179 127.319 394.191 130.383 391.24 133.787C388.29 137.191 386.474 139.726 385.794 141.39C384.432 147.518 383.6 151.603 383.297 153.645C382.995 155.612 382.805 156.709 382.73 156.936C382.654 157.163 382.578 157.466 382.503 157.844C382.427 158.147 382.314 158.336 382.162 158.411C382.087 158.487 381.935 158.525 381.708 158.525C380.574 158.525 378.796 158.449 376.375 158.298C373.954 158.147 372.744 157.92 372.744 157.617C373.198 154.894 374.37 149.22 376.262 140.596C376.64 138.478 376.829 137.456 376.829 137.532L381.935 112.567C382.011 112.038 382.162 111.735 382.389 111.66C382.692 111.508 383.259 111.433 384.091 111.433C387.647 111.433 390.219 112 391.808 113.135C391.732 113.437 391.316 115.329 390.56 118.809C389.803 122.213 388.706 126.563 387.269 131.858C391.505 126.714 395.855 122.061 400.319 117.901C404.782 113.74 407.808 111.66 409.397 111.66C410.229 111.66 411.893 112.076 414.39 112.908C416.962 113.74 418.324 114.421 418.475 114.95L416.432 122.667C414.465 129.702 412.99 135.3 412.007 139.461C411.023 143.622 410.532 146.799 410.532 148.993C410.532 152.473 412.158 154.213 415.411 154.213C418.059 154.213 420.934 153.191 424.035 151.149C427.213 149.031 430.087 146.345 432.659 143.092C435.307 139.764 437.236 136.435 438.447 133.106Z"/>
<path d="M480.071 159.887C476.516 159.887 473.074 159.508 469.745 158.752C466.492 157.995 463.769 157.05 461.575 155.915C459.457 154.78 458.133 153.683 457.603 152.624C457.981 150.733 458.36 148.047 458.738 144.567C459.192 141.012 459.457 138.402 459.532 136.738C460.364 136.057 461.423 135.641 462.71 135.489C463.012 141.541 464.563 146.194 467.362 149.447C470.161 152.624 474.209 154.213 479.504 154.213C485.027 154.213 489.414 152.586 492.667 149.333C495.996 146.08 497.66 141.92 497.66 136.851C497.66 134.355 497.206 132.236 496.299 130.496C495.466 128.681 494.294 127.13 492.781 125.844C491.343 124.482 489.263 122.894 486.54 121.078C482.757 118.43 479.693 116.123 477.348 114.156C475.078 112.113 473.263 109.844 471.901 107.348C470.539 104.775 469.859 101.863 469.859 98.6099C469.859 94.4492 470.993 90.8558 473.263 87.8298C475.608 84.7281 478.748 82.383 482.681 80.7943C486.691 79.13 491.154 78.2979 496.072 78.2979C500.838 78.2979 505.188 79.0166 509.122 80.4539C513.055 81.8156 515.552 83.2908 516.611 84.8794C513.585 91.6879 511.807 96.2648 511.278 98.6099C510.143 99.0638 508.781 99.2908 507.192 99.2908C508.176 96.643 508.668 94.3357 508.668 92.3688C508.668 89.3428 507.495 87.0355 505.15 85.4468C502.88 83.8582 499.892 83.0638 496.185 83.0638C490.89 83.0638 486.956 84.5012 484.384 87.3759C481.887 90.2506 480.639 93.5792 480.639 97.3617C480.639 100.993 481.774 104.057 484.043 106.553C486.313 109.05 489.263 111.395 492.894 113.589C496.828 116.009 499.93 118.128 502.199 119.943C504.469 121.683 506.36 123.877 507.873 126.525C509.462 129.173 510.256 132.35 510.256 136.057C510.256 140.974 508.895 145.248 506.171 148.879C503.448 152.435 499.779 155.158 495.164 157.05C490.625 158.941 485.594 159.887 480.071 159.887Z"/>
<path d="M589.214 131.177C590.576 131.177 591.257 132.312 591.257 134.582C591.257 138.213 589.781 142.033 586.831 146.043C583.956 149.976 580.363 153.267 576.051 155.915C571.738 158.563 567.767 159.887 564.136 159.887C561.261 159.887 558.727 159.054 556.533 157.39C554.414 155.726 552.901 153.57 551.994 150.922C549.951 153.494 547.492 155.574 544.618 157.163C541.743 158.676 539.171 159.433 536.901 159.433C534.934 159.433 532.967 158.865 531 157.731C529.033 156.52 527.369 155.007 526.007 153.191C524.646 151.376 523.927 149.56 523.851 147.745C525.591 140.028 527.142 132.539 528.504 125.277C528.806 123.764 530.093 121.872 532.362 119.603C534.632 117.258 537.355 115.253 540.532 113.589C543.71 111.924 546.736 111.092 549.611 111.092C552.258 111.092 554.944 111.887 557.667 113.475C558.197 112.189 558.613 111.395 558.916 111.092C559.218 110.714 559.672 110.487 560.277 110.411L570.15 109.844L570.49 110.071C569.582 110.827 568.902 111.66 568.448 112.567C567.994 113.475 567.578 114.534 567.199 115.745C565.838 120.359 564.438 125.957 563.001 132.539C561.563 139.045 560.845 143.546 560.845 146.043C560.845 148.161 561.336 150.09 562.32 151.83C563.379 153.57 565.006 154.44 567.199 154.44C569.469 154.44 572.079 153.456 575.029 151.489C578.055 149.522 580.854 146.761 583.427 143.206C586.074 139.65 588.003 135.641 589.214 131.177ZM540.532 152.624C541.592 152.624 542.878 152.095 544.391 151.035C545.904 149.976 547.303 148.539 548.589 146.723C549.951 144.908 550.897 142.903 551.426 140.709L553.242 132.199C554.604 125.239 555.549 120.662 556.079 118.468C554.112 117.56 552.031 117.106 549.838 117.106C546.282 117.106 543.596 118.241 541.781 120.511C540.041 122.704 538.868 125.201 538.263 128L534.745 145.135C534.896 147.026 535.577 148.766 536.788 150.355C537.998 151.868 539.246 152.624 540.532 152.624ZM554.263 103.376C553.355 103.376 552.523 103.035 551.767 102.355C550.254 101.144 547.681 98.4586 544.05 94.2979C540.495 90.1371 537.96 86.8463 536.447 84.4255C537.204 82.9125 538.263 81.513 539.625 80.2269C540.986 78.9409 542.197 78.2979 543.256 78.2979C543.71 78.2979 544.05 78.5626 544.277 79.0922C546.849 84.0851 548.968 88.1324 550.632 91.234C552.372 94.26 554.566 97.8156 557.213 101.901C556.457 102.884 555.473 103.376 554.263 103.376Z"/>
<path d="M650.098 117.333C651.081 117.712 651.573 118.506 651.573 119.716C651.573 121.835 650.552 123.877 648.509 125.844C646.466 127.735 643.781 129.286 640.452 130.496C637.199 131.707 633.833 132.312 630.353 132.312C627.629 132.312 624.83 131.896 621.955 131.064C621.88 131.593 621.766 132.199 621.615 132.879C621.464 133.485 621.312 134.241 621.161 135.149C620.934 136.359 620.48 138.591 619.799 141.844C619.194 145.097 618.816 147.404 618.665 148.766C618.059 150.052 616.773 151.565 614.806 153.305C612.84 154.969 610.532 156.407 607.884 157.617C605.237 158.827 602.627 159.433 600.054 159.433C597.558 159.433 595.024 158.827 592.452 157.617C589.879 156.407 587.723 154.78 585.983 152.738C584.319 150.619 583.487 148.35 583.487 145.929C584.546 141.844 585.34 138.478 585.87 135.83C586.399 133.182 587.042 129.4 587.799 124.482C588.102 122.667 589.312 120.738 591.43 118.695C593.624 116.577 596.272 114.837 599.374 113.475C602.551 112.113 605.653 111.433 608.679 111.433H610.154C610.381 110.071 610.91 109.087 611.743 108.482C612.575 107.801 613.823 107.461 615.487 107.461C617.984 107.461 619.572 107.953 620.253 108.936C619.497 112.113 619.119 114.383 619.119 115.745C619.119 119.149 620.329 121.835 622.75 123.801C625.246 125.768 628.688 126.752 633.076 126.752C636.783 126.752 640.187 125.995 643.289 124.482C646.391 122.969 648.66 120.586 650.098 117.333ZM601.189 153.305C602.702 153.305 604.253 152.775 605.842 151.716C607.43 150.582 608.49 149.333 609.019 147.972C609.776 143.887 610.494 140.407 611.175 137.532C611.402 136.473 611.743 134.771 612.196 132.426C612.726 130.08 613.142 127.962 613.445 126.071C611.553 124.18 610.381 121.91 609.927 119.262C609.927 118.96 609.851 118.695 609.7 118.468C609.624 118.241 609.473 118.09 609.246 118.014C608.792 117.863 608.149 117.787 607.317 117.787C604.745 117.787 602.627 118.544 600.962 120.057C599.298 121.494 598.239 123.385 597.785 125.73C596.196 133.144 594.759 139.764 593.473 145.589C593.548 147.934 594.418 149.825 596.083 151.262C597.747 152.624 599.449 153.305 601.189 153.305Z"/>
<path d="M700.801 160C697.85 160 693.5 159.697 687.751 159.092C683.363 158.638 679.959 158.336 677.538 158.184C676.554 158.109 675.798 157.995 675.268 157.844C674.814 157.617 674.02 157.163 672.885 156.482C673.642 155.423 674.171 154.591 674.474 153.986C674.852 153.305 675.193 152.397 675.495 151.262C676.327 148.009 678.521 136.813 682.077 117.674C685.632 98.4586 687.41 88.1324 687.41 86.695C687.41 86.3168 687.259 86.0142 686.956 85.7872C686.729 85.4846 686.351 85.3333 685.822 85.3333C685.443 85.3333 683.59 85.6359 680.261 86.2411C675.041 87.2246 671.561 87.7163 669.821 87.7163C667.098 87.7163 665.736 86.7329 665.736 84.766C665.736 83.9338 665.925 82.9125 666.304 81.7021C666.758 80.4161 667.174 79.4326 667.552 78.7518C668.611 79.13 669.708 79.3948 670.843 79.5461C672.053 79.6974 673.907 79.7731 676.403 79.7731C681.396 79.7731 687.524 79.5083 694.786 78.9787C702.503 78.5248 707.836 78.2979 710.786 78.2979C724.025 78.2979 733.974 81.0969 740.631 86.695C747.364 92.2175 750.73 100.426 750.73 111.319C750.73 119.338 748.952 127.092 745.397 134.582C741.841 141.995 736.319 148.085 728.829 152.851C721.34 157.617 711.997 160 700.801 160ZM703.184 153.986C710.597 153.986 717.028 151.981 722.475 147.972C727.997 143.887 732.196 138.553 735.07 131.972C738.021 125.314 739.496 118.203 739.496 110.638C739.496 101.333 737.037 94.5248 732.12 90.2128C727.203 85.8251 719.373 83.6312 708.63 83.6312C705.756 83.6312 703.675 83.7825 702.389 84.0851C701.103 84.3877 700.233 84.8416 699.779 85.4468C699.401 86.052 699.061 86.9976 698.758 88.2837C697.396 95.0165 693.954 112.757 688.432 141.504C688.28 142.109 688.015 143.281 687.637 145.021C687.335 146.761 687.183 148.047 687.183 148.879C687.183 149.485 687.335 149.976 687.637 150.355C687.94 150.657 688.469 150.998 689.226 151.376C690.89 152.132 692.971 152.775 695.467 153.305C698.039 153.759 700.611 153.986 703.184 153.986Z"/>
<path d="M828.357 131.177C829.719 131.177 830.4 132.312 830.4 134.582C830.4 138.213 828.925 142.033 825.974 146.043C823.099 149.976 819.506 153.267 815.194 155.915C810.882 158.563 806.91 159.887 803.279 159.887C800.404 159.887 797.87 159.054 795.676 157.39C793.558 155.726 792.045 153.57 791.137 150.922C789.094 153.494 786.636 155.574 783.761 157.163C780.886 158.676 778.314 159.433 776.044 159.433C774.077 159.433 772.111 158.865 770.144 157.731C768.177 156.52 766.512 155.007 765.151 153.191C763.789 151.376 763.07 149.56 762.995 147.745C764.735 140.028 766.285 132.539 767.647 125.277C767.95 123.764 769.236 121.872 771.505 119.603C773.775 117.258 776.498 115.253 779.676 113.589C782.853 111.924 785.879 111.092 788.754 111.092C791.402 111.092 794.087 111.887 796.811 113.475C797.34 112.189 797.756 111.395 798.059 111.092C798.362 110.714 798.815 110.487 799.421 110.411L809.293 109.844L809.634 110.071C808.726 110.827 808.045 111.66 807.591 112.567C807.137 113.475 806.721 114.534 806.343 115.745C804.981 120.359 803.581 125.957 802.144 132.539C800.707 139.045 799.988 143.546 799.988 146.043C799.988 148.161 800.48 150.09 801.463 151.83C802.522 153.57 804.149 154.44 806.343 154.44C808.612 154.44 811.222 153.456 814.173 151.489C817.199 149.522 819.998 146.761 822.57 143.206C825.218 139.65 827.147 135.641 828.357 131.177ZM779.676 152.624C780.735 152.624 782.021 152.095 783.534 151.035C785.047 149.976 786.446 148.539 787.733 146.723C789.094 144.908 790.04 142.903 790.569 140.709L792.385 132.199C793.747 125.239 794.692 120.662 795.222 118.468C793.255 117.56 791.175 117.106 788.981 117.106C785.425 117.106 782.74 118.241 780.924 120.511C779.184 122.704 778.011 125.201 777.406 128L773.888 145.135C774.04 147.026 774.721 148.766 775.931 150.355C777.141 151.868 778.39 152.624 779.676 152.624Z"/>
<path d="M906.83 130.837C907.738 130.837 908.456 131.102 908.986 131.631C909.516 132.085 909.78 132.804 909.78 133.787C909.78 136.057 908.57 139.234 906.149 143.319C903.728 147.404 900.551 150.998 896.617 154.099C892.683 157.201 888.485 158.752 884.021 158.752C880.012 158.752 876.532 157.541 873.581 155.121C870.706 152.624 869.269 149.598 869.269 146.043C869.269 144.076 869.685 141.541 870.517 138.44C871.425 135.338 872.56 131.745 873.922 127.66C875.132 123.726 875.813 121.456 875.964 120.851C875.964 120.624 875.813 120.435 875.51 120.284C875.208 120.057 874.905 119.943 874.603 119.943C873.165 119.943 870.669 122.44 867.113 127.433C863.557 132.35 860.872 136.548 859.056 140.028C858.3 142.449 856.938 147.896 854.971 156.369C854.668 157.655 854.404 158.525 854.177 158.979C854.025 159.433 853.761 159.66 853.382 159.66C852.928 159.66 851.983 159.433 850.545 158.979C849.184 158.6 847.935 158.109 846.801 157.504C845.742 156.898 845.212 156.293 845.212 155.688C845.212 154.704 845.552 152.965 846.233 150.468C847.973 144.113 849.335 139.007 850.318 135.149C851.302 131.215 852.361 126.449 853.496 120.851C853.042 120.246 852.475 119.943 851.794 119.943C850.659 119.943 848.995 121.154 846.801 123.574C844.682 125.92 842.375 129.059 839.879 132.993C837.458 136.851 835.264 140.898 833.297 145.135C831.935 150.052 830.801 154.856 829.893 159.546C828.909 159.546 827.094 159.281 824.446 158.752C821.874 158.222 820.588 157.655 820.588 157.05C820.588 156.52 820.966 154.856 821.722 152.057L822.29 149.106C822.592 147.593 823.576 143.054 825.24 135.489C826.904 127.849 828.72 120.322 830.687 112.908C830.838 112.227 831.027 111.735 831.254 111.433C831.481 111.13 831.822 110.979 832.276 110.979C832.881 110.979 834.47 111.243 837.042 111.773C839.614 112.227 841.013 112.567 841.24 112.794C839.803 118.998 838.214 125.39 836.474 131.972C838.895 127.508 841.316 123.839 843.737 120.965C846.233 118.09 848.465 116.047 850.432 114.837C852.475 113.551 854.063 112.908 855.198 112.908C856.181 112.908 857.884 113.4 860.304 114.383C862.801 115.291 864.049 116.009 864.049 116.539C863.444 120.17 862.498 124.482 861.212 129.475C869.156 117.598 874.905 111.66 878.461 111.66C879.822 111.66 881.638 112.113 883.908 113.021C886.177 113.853 887.312 114.799 887.312 115.858C886.48 118.506 886.101 119.754 886.177 119.603C884.135 126.109 882.546 131.442 881.411 135.603C880.352 139.764 879.822 143.13 879.822 145.702C879.822 150.392 882.016 152.738 886.404 152.738C890.641 152.738 894.65 150.733 898.433 146.723C902.215 142.714 905.014 137.418 906.83 130.837Z"/>
<path d="M914.006 159.319C910.526 159.319 907.765 158.411 905.723 156.596C903.68 154.704 902.659 151.716 902.659 147.631C902.659 146.648 902.697 145.891 902.772 145.362L906.403 128.113C907.917 120.397 908.9 115.669 909.354 113.929C909.732 113.021 910.451 112.303 911.51 111.773C912.569 111.168 913.779 110.865 915.141 110.865C916.352 110.865 917.335 111.13 918.092 111.66C918.924 112.113 919.378 112.643 919.453 113.248C917.865 120.284 915.709 130.686 912.985 144.454C912.909 145.059 912.872 145.853 912.872 146.837C912.872 148.955 913.326 150.468 914.233 151.376C915.141 152.284 916.465 152.738 918.205 152.738C921.231 152.738 924.484 151.678 927.964 149.56C931.444 147.366 934.659 144.681 937.61 141.504C940.636 138.251 942.981 135.035 944.645 131.858C945.78 132.312 946.347 133.069 946.347 134.128C946.347 134.884 946.196 135.678 945.893 136.511C945.591 137.267 945.402 137.759 945.326 137.986C943.889 141.39 941.392 144.757 937.837 148.085C934.357 151.414 930.423 154.137 926.035 156.255C921.723 158.298 917.713 159.319 914.006 159.319ZM916.503 99.0638C914.687 99.0638 913.288 98.5343 912.304 97.4752C911.396 96.4161 910.943 94.9787 910.943 93.1631C910.943 90.818 911.623 88.8511 912.985 87.2624C914.347 85.6738 916.2 84.8794 918.546 84.8794C920.361 84.8794 921.761 85.3712 922.744 86.3546C923.728 87.3381 924.219 88.7376 924.219 90.5532C924.219 92.8983 923.501 94.9031 922.063 96.5674C920.626 98.2317 918.772 99.0638 916.503 99.0638Z"/>
<path d="M1020.17 67.1773C1021.68 67.1773 1023.5 67.4799 1025.61 68.0851C1027.81 68.6147 1029.74 69.2577 1031.4 70.0142C1033.14 70.695 1034.01 71.1489 1034.01 71.3759C1028.19 71.3759 1023.46 73.9858 1019.83 79.2057C1016.27 84.3499 1013.36 91.2719 1011.09 99.9716C1008.89 108.596 1006.17 121.456 1002.92 138.553C1000.8 149.674 999.589 156.028 999.287 157.617C998.53 158.071 997.396 158.487 995.883 158.865C994.445 159.243 993.121 159.433 991.911 159.433C985.405 146.421 978.445 132.652 971.031 118.128C968.913 114.118 967.022 110.411 965.357 107.007C963.693 103.603 962.142 100.501 960.705 97.7021C959.04 105.04 957.641 111.697 956.506 117.674C955.447 123.574 954.237 130.761 952.875 139.234C950.908 151.035 949.773 157.882 949.471 159.773H944.364C942.851 159.773 941.678 159.433 940.846 158.752C940.09 158.071 939.712 157.277 939.712 156.369C939.712 155.083 940.544 150.809 942.208 143.546C943.872 136.208 945.688 128.53 947.655 120.511C949.471 113.248 951.097 106.402 952.534 99.9716C954.047 93.5414 954.804 89.8345 954.804 88.8511C954.804 88.2459 954.539 87.8298 954.01 87.6028C953.48 87.3002 952.61 87.1489 951.4 87.1489L947.541 87.2624C945.574 87.4137 944.213 87.4894 943.456 87.4894C942.246 87.4894 941.414 87.3381 940.96 87.0355C940.582 86.7329 940.392 86.0898 940.392 85.1064C940.392 83.2908 940.695 81.5887 941.3 80C942.435 80.5295 943.872 80.9456 945.612 81.2482C947.428 81.5508 949.168 81.7021 950.832 81.7021C954.01 81.7021 957.338 81.0591 960.818 79.7731C961.196 79.7731 961.575 79.9622 961.953 80.3404C962.331 80.643 962.672 81.0591 962.974 81.5887L971.599 98.9504C977.499 110.903 984.913 125.806 993.84 143.66C998.303 120.813 1001.59 104.662 1003.71 95.2057C1005.91 85.7494 1008.25 78.7139 1010.75 74.0993C1013.24 69.4846 1016.38 67.1773 1020.17 67.1773Z"/>
<path d="M1078.98 132.539C1080.26 133.144 1080.91 134.014 1080.91 135.149C1080.91 138.553 1078.9 142.147 1074.89 145.929C1070.96 149.636 1066.04 152.775 1060.14 155.348C1054.32 157.844 1048.91 159.092 1043.91 159.092C1039.83 159.092 1036.35 158.26 1033.47 156.596C1030.6 154.931 1028.41 153.078 1026.89 151.035C1025.46 148.917 1024.74 147.366 1024.74 146.383C1025.27 144.416 1025.76 142.071 1026.21 139.348C1026.74 136.624 1027.12 134.733 1027.35 133.674C1027.57 132.312 1027.84 130.723 1028.14 128.908C1028.52 127.017 1028.97 124.861 1029.5 122.44C1029.81 120.927 1031.13 119.262 1033.47 117.447C1035.82 115.556 1038.47 114.005 1041.42 112.794C1044.44 111.508 1046.94 110.865 1048.91 110.865C1050.57 110.865 1052.54 111.319 1054.81 112.227C1057.15 113.135 1059.16 114.421 1060.82 116.085C1062.49 117.674 1063.32 119.565 1063.32 121.759C1063.32 124.558 1061.92 127.281 1059.12 129.929C1056.4 132.577 1052.92 134.771 1048.68 136.511C1044.44 138.175 1040.28 139.083 1036.2 139.234L1035.29 144C1035.52 146.345 1036.61 148.388 1038.58 150.128C1040.55 151.792 1043.5 152.624 1047.43 152.624C1051.21 152.624 1055.15 151.754 1059.23 150.014C1063.39 148.274 1067.21 145.891 1070.69 142.865C1074.25 139.764 1077.01 136.322 1078.98 132.539ZM1047.89 115.631C1045.99 115.631 1044.14 116.539 1042.33 118.355C1040.59 120.17 1039.49 121.986 1039.03 123.801L1037.11 134.128C1041.64 133.825 1045.5 132.501 1048.68 130.156C1051.86 127.811 1053.45 125.05 1053.45 121.872C1053.45 119.981 1052.88 118.468 1051.74 117.333C1050.68 116.199 1049.4 115.631 1047.89 115.631Z"/>
<path d="M1084.19 160C1081.4 160 1078.82 159.508 1076.48 158.525C1074.13 157.541 1072.28 156.293 1070.92 154.78C1069.56 153.191 1068.88 151.565 1068.88 149.901C1068.88 148.388 1069.41 147.215 1070.46 146.383C1071.52 145.475 1072.73 144.946 1074.1 144.794C1075 147.82 1076.36 150.203 1078.18 151.943C1080 153.683 1082.23 154.553 1084.88 154.553C1087.6 154.553 1089.83 153.721 1091.57 152.057C1093.31 150.317 1094.18 148.312 1094.18 146.043C1094.18 144.151 1093.61 142.525 1092.48 141.163C1091.34 139.726 1089.53 138.024 1087.03 136.057C1084.46 134.014 1082.53 132.199 1081.24 130.61C1079.96 129.021 1079.32 127.13 1079.32 124.936C1079.32 122.515 1080.11 120.246 1081.7 118.128C1083.36 116.009 1085.44 114.345 1087.94 113.135C1090.51 111.849 1093.05 111.206 1095.54 111.206C1098.34 111.206 1101.03 111.887 1103.6 113.248C1106.17 114.534 1107.46 116.047 1107.46 117.787C1107.46 118.619 1107.16 119.452 1106.55 120.284C1105.94 121.116 1105.04 121.797 1103.83 122.326C1102.77 120.511 1101.63 119.149 1100.42 118.241C1099.29 117.333 1097.89 116.879 1096.22 116.879C1094.41 116.879 1092.82 117.409 1091.46 118.468C1090.1 119.452 1089.41 120.851 1089.41 122.667C1089.41 124.255 1089.98 125.73 1091.12 127.092C1092.25 128.378 1093.99 129.967 1096.34 131.858C1099.14 134.128 1101.22 136.132 1102.58 137.872C1104.02 139.537 1104.73 141.541 1104.73 143.887C1104.73 146.534 1103.75 149.106 1101.78 151.603C1099.89 154.099 1097.36 156.142 1094.18 157.731C1091.08 159.244 1087.75 160 1084.19 160Z"/>
<path d="M1161.32 138.553C1161.77 139.158 1162 139.801 1162 140.482C1162 141.012 1161.85 141.806 1161.55 142.865C1160.49 145.286 1158.22 147.82 1154.74 150.468C1151.26 153.116 1147.32 155.31 1142.94 157.05C1138.62 158.79 1134.84 159.66 1131.59 159.66C1127.96 159.66 1125.12 158.563 1123.08 156.369C1121.11 154.175 1120.13 151.225 1120.13 147.518C1120.13 143.433 1121.64 133.56 1124.67 117.901L1113.43 118.355C1113.36 118.355 1113.21 118.165 1112.98 117.787C1112.75 117.409 1112.6 117.106 1112.52 116.879C1113.73 114.459 1114.72 112.719 1115.47 111.66H1125.8L1131.02 85.5603C1135.86 82.8369 1140.33 81.0591 1144.41 80.2269C1144.71 80.2269 1145.05 80.4539 1145.43 80.9078C1145.89 81.2861 1146.11 81.6265 1146.11 81.9291C1143.09 83.3664 1141.23 85.7116 1140.55 88.9645C1139.49 93.6548 1137.94 101.258 1135.9 111.773L1157.23 111.887C1157.16 112.189 1157.12 112.643 1157.12 113.248C1157.2 113.853 1157.23 114.307 1157.23 114.61C1157.23 115.291 1157.04 115.783 1156.67 116.085C1156.29 116.388 1155.72 116.539 1154.96 116.539L1134.88 117.447C1132 132.501 1130.57 142.033 1130.57 146.043C1130.57 148.085 1131.1 149.712 1132.16 150.922C1133.21 152.132 1134.88 152.738 1137.15 152.738C1140.55 152.738 1144.37 151.452 1148.61 148.879C1152.85 146.307 1157.08 142.865 1161.32 138.553Z"/>
</mask>
<path d="M337.207 72.9645C342.805 72.9645 345.604 75.0071 345.604 79.0922C345.604 80.0757 345.453 81.0213 345.15 81.9291C344.848 82.7612 344.507 83.4043 344.129 83.8582C342.767 83.3286 340.687 83.0638 337.888 83.0638C329.718 83.0638 321.925 85.8629 314.512 91.461C307.173 96.9835 300.894 104.284 295.674 113.362C290.53 122.364 287.05 131.858 285.235 141.844C284.856 144.113 284.365 147.82 283.759 152.965L283.306 156.482C283.154 157.314 282.889 157.882 282.511 158.184C282.209 158.411 281.755 158.525 281.149 158.525C278.577 158.525 276.232 158.6 274.114 158.752C272.071 158.979 270.369 159.395 269.007 160C268.629 159.47 268.44 159.054 268.44 158.752C271.466 153.759 273.773 147.215 275.362 139.121C277.026 131.026 277.859 123.499 277.859 116.539C277.859 107.915 276.459 101.106 273.66 96.1135C270.861 91.0449 266.473 88.5106 260.497 88.5106C256.865 88.5106 253.915 89.4563 251.646 91.3475C249.452 93.1631 247.106 95.9622 244.61 99.7447C243.778 99.4421 243.135 98.9125 242.681 98.156C242.227 97.3239 242 96.4161 242 95.4326C242 93.3901 242.832 91.0071 244.496 88.2837C246.236 85.4846 248.657 83.1017 251.759 81.1348C254.936 79.0922 258.605 78.0709 262.766 78.0709C270.029 78.0709 275.589 81.2861 279.447 87.7163C283.306 94.0709 285.235 102.733 285.235 113.702C285.235 115.064 285.159 117.106 285.008 119.83C288.488 111.811 293.14 104.208 298.965 97.0213C304.866 89.7589 311.183 83.9338 317.916 79.5461C324.725 75.1584 331.155 72.9645 337.207 72.9645Z" fill="#8C1105"/>
<path d="M381.939 132.539C383.225 133.144 383.868 134.014 383.868 135.149C383.868 138.553 381.863 142.147 377.854 145.929C373.92 149.636 369.003 152.775 363.102 155.348C357.277 157.844 351.868 159.092 346.875 159.092C342.789 159.092 339.31 158.26 336.435 156.596C333.56 154.931 331.366 153.078 329.853 151.035C328.416 148.917 327.697 147.366 327.697 146.383C328.227 144.416 328.718 142.071 329.172 139.348C329.702 136.624 330.08 134.733 330.307 133.674C330.534 132.312 330.799 130.723 331.101 128.908C331.48 127.017 331.934 124.861 332.463 122.44C332.766 120.927 334.09 119.262 336.435 117.447C338.78 115.556 341.428 114.005 344.378 112.794C347.404 111.508 349.901 110.865 351.868 110.865C353.532 110.865 355.499 111.319 357.768 112.227C360.114 113.135 362.118 114.421 363.783 116.085C365.447 117.674 366.279 119.565 366.279 121.759C366.279 124.558 364.88 127.281 362.081 129.929C359.357 132.577 355.877 134.771 351.641 136.511C347.404 138.175 343.243 139.083 339.158 139.234L338.25 144C338.477 146.345 339.574 148.388 341.541 150.128C343.508 151.792 346.459 152.624 350.392 152.624C354.175 152.624 358.109 151.754 362.194 150.014C366.355 148.274 370.175 145.891 373.655 142.865C377.211 139.764 379.972 136.322 381.939 132.539ZM350.846 115.631C348.955 115.631 347.102 116.539 345.286 118.355C343.546 120.17 342.449 121.986 341.995 123.801L340.066 134.128C344.605 133.825 348.463 132.501 351.641 130.156C354.818 127.811 356.407 125.05 356.407 121.872C356.407 119.981 355.839 118.468 354.705 117.333C353.645 116.199 352.359 115.631 350.846 115.631ZM384.435 64C385.268 64 386.516 64.4161 388.18 65.2482C389.92 66.0047 390.79 66.6856 390.79 67.2908C390.79 67.5934 390.336 68.1608 389.428 68.9929L374.336 81.0213C373.201 81.8534 372.445 82.4586 372.066 82.8369C371.613 83.2151 371.083 83.4043 370.478 83.4043C369.873 83.4043 369.192 83.026 368.435 82.2695C371.991 78.4113 374.639 75.4232 376.379 73.305C378.194 71.1111 380.388 68.3121 382.96 64.9078C383.414 64.3026 383.906 64 384.435 64ZM357.995 75.5745C359.584 75.5745 360.719 76.1418 361.4 77.2766C362.459 78.9409 364.01 82.4586 366.052 87.8298C368.095 93.2009 369.116 96.5295 369.116 97.8156C369.116 98.7234 368.36 99.6312 366.847 100.539C365.334 101.371 363.934 101.787 362.648 101.787C360.53 94.2979 358.563 88.435 356.747 84.1986C352.057 89.7967 348.199 94.9031 345.172 99.5177C343.811 99.3664 342.638 98.9125 341.655 98.156C340.671 97.3239 340.217 96.4161 340.293 95.4326C340.369 94.7518 340.709 93.9575 341.314 93.0496C344.113 88.5106 348.312 83.4421 353.91 77.844C354.894 76.8605 355.612 76.2553 356.066 76.0284C356.52 75.7258 357.163 75.5745 357.995 75.5745Z" fill="#8C1105"/>
<path d="M438.447 133.106C439.128 133.106 439.657 133.371 440.035 133.901C440.414 134.355 440.603 134.96 440.603 135.716C440.603 137.759 439.317 140.785 436.745 144.794C434.248 148.728 430.882 152.246 426.645 155.348C422.409 158.374 417.718 159.887 412.574 159.887C408.64 159.887 405.576 158.941 403.383 157.05C401.264 155.083 400.205 152.511 400.205 149.333C400.205 147.442 400.546 145.097 401.226 142.298C401.983 139.499 403.004 135.981 404.29 131.745C405.501 127.811 406.484 124.293 407.241 121.191C407.165 120.738 406.862 120.511 406.333 120.511C405.274 120.511 403.231 121.872 400.205 124.596C397.179 127.319 394.191 130.383 391.24 133.787C388.29 137.191 386.474 139.726 385.794 141.39C384.432 147.518 383.6 151.603 383.297 153.645C382.995 155.612 382.805 156.709 382.73 156.936C382.654 157.163 382.578 157.466 382.503 157.844C382.427 158.147 382.314 158.336 382.162 158.411C382.087 158.487 381.935 158.525 381.708 158.525C380.574 158.525 378.796 158.449 376.375 158.298C373.954 158.147 372.744 157.92 372.744 157.617C373.198 154.894 374.37 149.22 376.262 140.596C376.64 138.478 376.829 137.456 376.829 137.532L381.935 112.567C382.011 112.038 382.162 111.735 382.389 111.66C382.692 111.508 383.259 111.433 384.091 111.433C387.647 111.433 390.219 112 391.808 113.135C391.732 113.437 391.316 115.329 390.56 118.809C389.803 122.213 388.706 126.563 387.269 131.858C391.505 126.714 395.855 122.061 400.319 117.901C404.782 113.74 407.808 111.66 409.397 111.66C410.229 111.66 411.893 112.076 414.39 112.908C416.962 113.74 418.324 114.421 418.475 114.95L416.432 122.667C414.465 129.702 412.99 135.3 412.007 139.461C411.023 143.622 410.532 146.799 410.532 148.993C410.532 152.473 412.158 154.213 415.411 154.213C418.059 154.213 420.934 153.191 424.035 151.149C427.213 149.031 430.087 146.345 432.659 143.092C435.307 139.764 437.236 136.435 438.447 133.106Z" fill="#8C1105"/>
<path d="M480.071 159.887C476.516 159.887 473.074 159.508 469.745 158.752C466.492 157.995 463.769 157.05 461.575 155.915C459.457 154.78 458.133 153.683 457.603 152.624C457.981 150.733 458.36 148.047 458.738 144.567C459.192 141.012 459.457 138.402 459.532 136.738C460.364 136.057 461.423 135.641 462.71 135.489C463.012 141.541 464.563 146.194 467.362 149.447C470.161 152.624 474.209 154.213 479.504 154.213C485.027 154.213 489.414 152.586 492.667 149.333C495.996 146.08 497.66 141.92 497.66 136.851C497.66 134.355 497.206 132.236 496.299 130.496C495.466 128.681 494.294 127.13 492.781 125.844C491.343 124.482 489.263 122.894 486.54 121.078C482.757 118.43 479.693 116.123 477.348 114.156C475.078 112.113 473.263 109.844 471.901 107.348C470.539 104.775 469.859 101.863 469.859 98.6099C469.859 94.4492 470.993 90.8558 473.263 87.8298C475.608 84.7281 478.748 82.383 482.681 80.7943C486.691 79.13 491.154 78.2979 496.072 78.2979C500.838 78.2979 505.188 79.0166 509.122 80.4539C513.055 81.8156 515.552 83.2908 516.611 84.8794C513.585 91.6879 511.807 96.2648 511.278 98.6099C510.143 99.0638 508.781 99.2908 507.192 99.2908C508.176 96.643 508.668 94.3357 508.668 92.3688C508.668 89.3428 507.495 87.0355 505.15 85.4468C502.88 83.8582 499.892 83.0638 496.185 83.0638C490.89 83.0638 486.956 84.5012 484.384 87.3759C481.887 90.2506 480.639 93.5792 480.639 97.3617C480.639 100.993 481.774 104.057 484.043 106.553C486.313 109.05 489.263 111.395 492.894 113.589C496.828 116.009 499.93 118.128 502.199 119.943C504.469 121.683 506.36 123.877 507.873 126.525C509.462 129.173 510.256 132.35 510.256 136.057C510.256 140.974 508.895 145.248 506.171 148.879C503.448 152.435 499.779 155.158 495.164 157.05C490.625 158.941 485.594 159.887 480.071 159.887Z" fill="#8C1105"/>
<path d="M589.214 131.177C590.576 131.177 591.257 132.312 591.257 134.582C591.257 138.213 589.781 142.033 586.831 146.043C583.956 149.976 580.363 153.267 576.051 155.915C571.738 158.563 567.767 159.887 564.136 159.887C561.261 159.887 558.727 159.054 556.533 157.39C554.414 155.726 552.901 153.57 551.994 150.922C549.951 153.494 547.492 155.574 544.618 157.163C541.743 158.676 539.171 159.433 536.901 159.433C534.934 159.433 532.967 158.865 531 157.731C529.033 156.52 527.369 155.007 526.007 153.191C524.646 151.376 523.927 149.56 523.851 147.745C525.591 140.028 527.142 132.539 528.504 125.277C528.806 123.764 530.093 121.872 532.362 119.603C534.632 117.258 537.355 115.253 540.532 113.589C543.71 111.924 546.736 111.092 549.611 111.092C552.258 111.092 554.944 111.887 557.667 113.475C558.197 112.189 558.613 111.395 558.916 111.092C559.218 110.714 559.672 110.487 560.277 110.411L570.15 109.844L570.49 110.071C569.582 110.827 568.902 111.66 568.448 112.567C567.994 113.475 567.578 114.534 567.199 115.745C565.838 120.359 564.438 125.957 563.001 132.539C561.563 139.045 560.845 143.546 560.845 146.043C560.845 148.161 561.336 150.09 562.32 151.83C563.379 153.57 565.006 154.44 567.199 154.44C569.469 154.44 572.079 153.456 575.029 151.489C578.055 149.522 580.854 146.761 583.427 143.206C586.074 139.65 588.003 135.641 589.214 131.177ZM540.532 152.624C541.592 152.624 542.878 152.095 544.391 151.035C545.904 149.976 547.303 148.539 548.589 146.723C549.951 144.908 550.897 142.903 551.426 140.709L553.242 132.199C554.604 125.239 555.549 120.662 556.079 118.468C554.112 117.56 552.031 117.106 549.838 117.106C546.282 117.106 543.596 118.241 541.781 120.511C540.041 122.704 538.868 125.201 538.263 128L534.745 145.135C534.896 147.026 535.577 148.766 536.788 150.355C537.998 151.868 539.246 152.624 540.532 152.624ZM554.263 103.376C553.355 103.376 552.523 103.035 551.767 102.355C550.254 101.144 547.681 98.4586 544.05 94.2979C540.495 90.1371 537.96 86.8463 536.447 84.4255C537.204 82.9125 538.263 81.513 539.625 80.2269C540.986 78.9409 542.197 78.2979 543.256 78.2979C543.71 78.2979 544.05 78.5626 544.277 79.0922C546.849 84.0851 548.968 88.1324 550.632 91.234C552.372 94.26 554.566 97.8156 557.213 101.901C556.457 102.884 555.473 103.376 554.263 103.376Z" fill="#8C1105"/>
<path d="M650.098 117.333C651.081 117.712 651.573 118.506 651.573 119.716C651.573 121.835 650.552 123.877 648.509 125.844C646.466 127.735 643.781 129.286 640.452 130.496C637.199 131.707 633.833 132.312 630.353 132.312C627.629 132.312 624.83 131.896 621.955 131.064C621.88 131.593 621.766 132.199 621.615 132.879C621.464 133.485 621.312 134.241 621.161 135.149C620.934 136.359 620.48 138.591 619.799 141.844C619.194 145.097 618.816 147.404 618.665 148.766C618.059 150.052 616.773 151.565 614.806 153.305C612.84 154.969 610.532 156.407 607.884 157.617C605.237 158.827 602.627 159.433 600.054 159.433C597.558 159.433 595.024 158.827 592.452 157.617C589.879 156.407 587.723 154.78 585.983 152.738C584.319 150.619 583.487 148.35 583.487 145.929C584.546 141.844 585.34 138.478 585.87 135.83C586.399 133.182 587.042 129.4 587.799 124.482C588.102 122.667 589.312 120.738 591.43 118.695C593.624 116.577 596.272 114.837 599.374 113.475C602.551 112.113 605.653 111.433 608.679 111.433H610.154C610.381 110.071 610.91 109.087 611.743 108.482C612.575 107.801 613.823 107.461 615.487 107.461C617.984 107.461 619.572 107.953 620.253 108.936C619.497 112.113 619.119 114.383 619.119 115.745C619.119 119.149 620.329 121.835 622.75 123.801C625.246 125.768 628.688 126.752 633.076 126.752C636.783 126.752 640.187 125.995 643.289 124.482C646.391 122.969 648.66 120.586 650.098 117.333ZM601.189 153.305C602.702 153.305 604.253 152.775 605.842 151.716C607.43 150.582 608.49 149.333 609.019 147.972C609.776 143.887 610.494 140.407 611.175 137.532C611.402 136.473 611.743 134.771 612.196 132.426C612.726 130.08 613.142 127.962 613.445 126.071C611.553 124.18 610.381 121.91 609.927 119.262C609.927 118.96 609.851 118.695 609.7 118.468C609.624 118.241 609.473 118.09 609.246 118.014C608.792 117.863 608.149 117.787 607.317 117.787C604.745 117.787 602.627 118.544 600.962 120.057C599.298 121.494 598.239 123.385 597.785 125.73C596.196 133.144 594.759 139.764 593.473 145.589C593.548 147.934 594.418 149.825 596.083 151.262C597.747 152.624 599.449 153.305 601.189 153.305Z" fill="#8C1105"/>
<path d="M700.801 160C697.85 160 693.5 159.697 687.751 159.092C683.363 158.638 679.959 158.336 677.538 158.184C676.554 158.109 675.798 157.995 675.268 157.844C674.814 157.617 674.02 157.163 672.885 156.482C673.642 155.423 674.171 154.591 674.474 153.986C674.852 153.305 675.193 152.397 675.495 151.262C676.327 148.009 678.521 136.813 682.077 117.674C685.632 98.4586 687.41 88.1324 687.41 86.695C687.41 86.3168 687.259 86.0142 686.956 85.7872C686.729 85.4846 686.351 85.3333 685.822 85.3333C685.443 85.3333 683.59 85.6359 680.261 86.2411C675.041 87.2246 671.561 87.7163 669.821 87.7163C667.098 87.7163 665.736 86.7329 665.736 84.766C665.736 83.9338 665.925 82.9125 666.304 81.7021C666.758 80.4161 667.174 79.4326 667.552 78.7518C668.611 79.13 669.708 79.3948 670.843 79.5461C672.053 79.6974 673.907 79.7731 676.403 79.7731C681.396 79.7731 687.524 79.5083 694.786 78.9787C702.503 78.5248 707.836 78.2979 710.786 78.2979C724.025 78.2979 733.974 81.0969 740.631 86.695C747.364 92.2175 750.73 100.426 750.73 111.319C750.73 119.338 748.952 127.092 745.397 134.582C741.841 141.995 736.319 148.085 728.829 152.851C721.34 157.617 711.997 160 700.801 160ZM703.184 153.986C710.597 153.986 717.028 151.981 722.475 147.972C727.997 143.887 732.196 138.553 735.07 131.972C738.021 125.314 739.496 118.203 739.496 110.638C739.496 101.333 737.037 94.5248 732.12 90.2128C727.203 85.8251 719.373 83.6312 708.63 83.6312C705.756 83.6312 703.675 83.7825 702.389 84.0851C701.103 84.3877 700.233 84.8416 699.779 85.4468C699.401 86.052 699.061 86.9976 698.758 88.2837C697.396 95.0165 693.954 112.757 688.432 141.504C688.28 142.109 688.015 143.281 687.637 145.021C687.335 146.761 687.183 148.047 687.183 148.879C687.183 149.485 687.335 149.976 687.637 150.355C687.94 150.657 688.469 150.998 689.226 151.376C690.89 152.132 692.971 152.775 695.467 153.305C698.039 153.759 700.611 153.986 703.184 153.986Z" fill="#8C1105"/>
<path d="M828.357 131.177C829.719 131.177 830.4 132.312 830.4 134.582C830.4 138.213 828.925 142.033 825.974 146.043C823.099 149.976 819.506 153.267 815.194 155.915C810.882 158.563 806.91 159.887 803.279 159.887C800.404 159.887 797.87 159.054 795.676 157.39C793.558 155.726 792.045 153.57 791.137 150.922C789.094 153.494 786.636 155.574 783.761 157.163C780.886 158.676 778.314 159.433 776.044 159.433C774.077 159.433 772.111 158.865 770.144 157.731C768.177 156.52 766.512 155.007 765.151 153.191C763.789 151.376 763.07 149.56 762.995 147.745C764.735 140.028 766.285 132.539 767.647 125.277C767.95 123.764 769.236 121.872 771.505 119.603C773.775 117.258 776.498 115.253 779.676 113.589C782.853 111.924 785.879 111.092 788.754 111.092C791.402 111.092 794.087 111.887 796.811 113.475C797.34 112.189 797.756 111.395 798.059 111.092C798.362 110.714 798.815 110.487 799.421 110.411L809.293 109.844L809.634 110.071C808.726 110.827 808.045 111.66 807.591 112.567C807.137 113.475 806.721 114.534 806.343 115.745C804.981 120.359 803.581 125.957 802.144 132.539C800.707 139.045 799.988 143.546 799.988 146.043C799.988 148.161 800.48 150.09 801.463 151.83C802.522 153.57 804.149 154.44 806.343 154.44C808.612 154.44 811.222 153.456 814.173 151.489C817.199 149.522 819.998 146.761 822.57 143.206C825.218 139.65 827.147 135.641 828.357 131.177ZM779.676 152.624C780.735 152.624 782.021 152.095 783.534 151.035C785.047 149.976 786.446 148.539 787.733 146.723C789.094 144.908 790.04 142.903 790.569 140.709L792.385 132.199C793.747 125.239 794.692 120.662 795.222 118.468C793.255 117.56 791.175 117.106 788.981 117.106C785.425 117.106 782.74 118.241 780.924 120.511C779.184 122.704 778.011 125.201 777.406 128L773.888 145.135C774.04 147.026 774.721 148.766 775.931 150.355C777.141 151.868 778.39 152.624 779.676 152.624Z" fill="#8C1105"/>
<path d="M906.83 130.837C907.738 130.837 908.456 131.102 908.986 131.631C909.516 132.085 909.78 132.804 909.78 133.787C909.78 136.057 908.57 139.234 906.149 143.319C903.728 147.404 900.551 150.998 896.617 154.099C892.683 157.201 888.485 158.752 884.021 158.752C880.012 158.752 876.532 157.541 873.581 155.121C870.706 152.624 869.269 149.598 869.269 146.043C869.269 144.076 869.685 141.541 870.517 138.44C871.425 135.338 872.56 131.745 873.922 127.66C875.132 123.726 875.813 121.456 875.964 120.851C875.964 120.624 875.813 120.435 875.51 120.284C875.208 120.057 874.905 119.943 874.603 119.943C873.165 119.943 870.669 122.44 867.113 127.433C863.557 132.35 860.872 136.548 859.056 140.028C858.3 142.449 856.938 147.896 854.971 156.369C854.668 157.655 854.404 158.525 854.177 158.979C854.025 159.433 853.761 159.66 853.382 159.66C852.928 159.66 851.983 159.433 850.545 158.979C849.184 158.6 847.935 158.109 846.801 157.504C845.742 156.898 845.212 156.293 845.212 155.688C845.212 154.704 845.552 152.965 846.233 150.468C847.973 144.113 849.335 139.007 850.318 135.149C851.302 131.215 852.361 126.449 853.496 120.851C853.042 120.246 852.475 119.943 851.794 119.943C850.659 119.943 848.995 121.154 846.801 123.574C844.682 125.92 842.375 129.059 839.879 132.993C837.458 136.851 835.264 140.898 833.297 145.135C831.935 150.052 830.801 154.856 829.893 159.546C828.909 159.546 827.094 159.281 824.446 158.752C821.874 158.222 820.588 157.655 820.588 157.05C820.588 156.52 820.966 154.856 821.722 152.057L822.29 149.106C822.592 147.593 823.576 143.054 825.24 135.489C826.904 127.849 828.72 120.322 830.687 112.908C830.838 112.227 831.027 111.735 831.254 111.433C831.481 111.13 831.822 110.979 832.276 110.979C832.881 110.979 834.47 111.243 837.042 111.773C839.614 112.227 841.013 112.567 841.24 112.794C839.803 118.998 838.214 125.39 836.474 131.972C838.895 127.508 841.316 123.839 843.737 120.965C846.233 118.09 848.465 116.047 850.432 114.837C852.475 113.551 854.063 112.908 855.198 112.908C856.181 112.908 857.884 113.4 860.304 114.383C862.801 115.291 864.049 116.009 864.049 116.539C863.444 120.17 862.498 124.482 861.212 129.475C869.156 117.598 874.905 111.66 878.461 111.66C879.822 111.66 881.638 112.113 883.908 113.021C886.177 113.853 887.312 114.799 887.312 115.858C886.48 118.506 886.101 119.754 886.177 119.603C884.135 126.109 882.546 131.442 881.411 135.603C880.352 139.764 879.822 143.13 879.822 145.702C879.822 150.392 882.016 152.738 886.404 152.738C890.641 152.738 894.65 150.733 898.433 146.723C902.215 142.714 905.014 137.418 906.83 130.837Z" fill="#8C1105"/>
<path d="M914.006 159.319C910.526 159.319 907.765 158.411 905.723 156.596C903.68 154.704 902.659 151.716 902.659 147.631C902.659 146.648 902.697 145.891 902.772 145.362L906.403 128.113C907.917 120.397 908.9 115.669 909.354 113.929C909.732 113.021 910.451 112.303 911.51 111.773C912.569 111.168 913.779 110.865 915.141 110.865C916.352 110.865 917.335 111.13 918.092 111.66C918.924 112.113 919.378 112.643 919.453 113.248C917.865 120.284 915.709 130.686 912.985 144.454C912.909 145.059 912.872 145.853 912.872 146.837C912.872 148.955 913.326 150.468 914.233 151.376C915.141 152.284 916.465 152.738 918.205 152.738C921.231 152.738 924.484 151.678 927.964 149.56C931.444 147.366 934.659 144.681 937.61 141.504C940.636 138.251 942.981 135.035 944.645 131.858C945.78 132.312 946.347 133.069 946.347 134.128C946.347 134.884 946.196 135.678 945.893 136.511C945.591 137.267 945.402 137.759 945.326 137.986C943.889 141.39 941.392 144.757 937.837 148.085C934.357 151.414 930.423 154.137 926.035 156.255C921.723 158.298 917.713 159.319 914.006 159.319ZM916.503 99.0638C914.687 99.0638 913.288 98.5343 912.304 97.4752C911.396 96.4161 910.943 94.9787 910.943 93.1631C910.943 90.818 911.623 88.8511 912.985 87.2624C914.347 85.6738 916.2 84.8794 918.546 84.8794C920.361 84.8794 921.761 85.3712 922.744 86.3546C923.728 87.3381 924.219 88.7376 924.219 90.5532C924.219 92.8983 923.501 94.9031 922.063 96.5674C920.626 98.2317 918.772 99.0638 916.503 99.0638Z" fill="#8C1105"/>
<path d="M1020.17 67.1773C1021.68 67.1773 1023.5 67.4799 1025.61 68.0851C1027.81 68.6147 1029.74 69.2577 1031.4 70.0142C1033.14 70.695 1034.01 71.1489 1034.01 71.3759C1028.19 71.3759 1023.46 73.9858 1019.83 79.2057C1016.27 84.3499 1013.36 91.2719 1011.09 99.9716C1008.89 108.596 1006.17 121.456 1002.92 138.553C1000.8 149.674 999.589 156.028 999.287 157.617C998.53 158.071 997.396 158.487 995.883 158.865C994.445 159.243 993.121 159.433 991.911 159.433C985.405 146.421 978.445 132.652 971.031 118.128C968.913 114.118 967.022 110.411 965.357 107.007C963.693 103.603 962.142 100.501 960.705 97.7021C959.04 105.04 957.641 111.697 956.506 117.674C955.447 123.574 954.237 130.761 952.875 139.234C950.908 151.035 949.773 157.882 949.471 159.773H944.364C942.851 159.773 941.678 159.433 940.846 158.752C940.09 158.071 939.712 157.277 939.712 156.369C939.712 155.083 940.544 150.809 942.208 143.546C943.872 136.208 945.688 128.53 947.655 120.511C949.471 113.248 951.097 106.402 952.534 99.9716C954.047 93.5414 954.804 89.8345 954.804 88.8511C954.804 88.2459 954.539 87.8298 954.01 87.6028C953.48 87.3002 952.61 87.1489 951.4 87.1489L947.541 87.2624C945.574 87.4137 944.213 87.4894 943.456 87.4894C942.246 87.4894 941.414 87.3381 940.96 87.0355C940.582 86.7329 940.392 86.0898 940.392 85.1064C940.392 83.2908 940.695 81.5887 941.3 80C942.435 80.5295 943.872 80.9456 945.612 81.2482C947.428 81.5508 949.168 81.7021 950.832 81.7021C954.01 81.7021 957.338 81.0591 960.818 79.7731C961.196 79.7731 961.575 79.9622 961.953 80.3404C962.331 80.643 962.672 81.0591 962.974 81.5887L971.599 98.9504C977.499 110.903 984.913 125.806 993.84 143.66C998.303 120.813 1001.59 104.662 1003.71 95.2057C1005.91 85.7494 1008.25 78.7139 1010.75 74.0993C1013.24 69.4846 1016.38 67.1773 1020.17 67.1773Z" fill="#8C1105"/>
<path d="M1078.98 132.539C1080.26 133.144 1080.91 134.014 1080.91 135.149C1080.91 138.553 1078.9 142.147 1074.89 145.929C1070.96 149.636 1066.04 152.775 1060.14 155.348C1054.32 157.844 1048.91 159.092 1043.91 159.092C1039.83 159.092 1036.35 158.26 1033.47 156.596C1030.6 154.931 1028.41 153.078 1026.89 151.035C1025.46 148.917 1024.74 147.366 1024.74 146.383C1025.27 144.416 1025.76 142.071 1026.21 139.348C1026.74 136.624 1027.12 134.733 1027.35 133.674C1027.57 132.312 1027.84 130.723 1028.14 128.908C1028.52 127.017 1028.97 124.861 1029.5 122.44C1029.81 120.927 1031.13 119.262 1033.47 117.447C1035.82 115.556 1038.47 114.005 1041.42 112.794C1044.44 111.508 1046.94 110.865 1048.91 110.865C1050.57 110.865 1052.54 111.319 1054.81 112.227C1057.15 113.135 1059.16 114.421 1060.82 116.085C1062.49 117.674 1063.32 119.565 1063.32 121.759C1063.32 124.558 1061.92 127.281 1059.12 129.929C1056.4 132.577 1052.92 134.771 1048.68 136.511C1044.44 138.175 1040.28 139.083 1036.2 139.234L1035.29 144C1035.52 146.345 1036.61 148.388 1038.58 150.128C1040.55 151.792 1043.5 152.624 1047.43 152.624C1051.21 152.624 1055.15 151.754 1059.23 150.014C1063.39 148.274 1067.21 145.891 1070.69 142.865C1074.25 139.764 1077.01 136.322 1078.98 132.539ZM1047.89 115.631C1045.99 115.631 1044.14 116.539 1042.33 118.355C1040.59 120.17 1039.49 121.986 1039.03 123.801L1037.11 134.128C1041.64 133.825 1045.5 132.501 1048.68 130.156C1051.86 127.811 1053.45 125.05 1053.45 121.872C1053.45 119.981 1052.88 118.468 1051.74 117.333C1050.68 116.199 1049.4 115.631 1047.89 115.631Z" fill="#8C1105"/>
<path d="M1084.19 160C1081.4 160 1078.82 159.508 1076.48 158.525C1074.13 157.541 1072.28 156.293 1070.92 154.78C1069.56 153.191 1068.88 151.565 1068.88 149.901C1068.88 148.388 1069.41 147.215 1070.46 146.383C1071.52 145.475 1072.73 144.946 1074.1 144.794C1075 147.82 1076.36 150.203 1078.18 151.943C1080 153.683 1082.23 154.553 1084.88 154.553C1087.6 154.553 1089.83 153.721 1091.57 152.057C1093.31 150.317 1094.18 148.312 1094.18 146.043C1094.18 144.151 1093.61 142.525 1092.48 141.163C1091.34 139.726 1089.53 138.024 1087.03 136.057C1084.46 134.014 1082.53 132.199 1081.24 130.61C1079.96 129.021 1079.32 127.13 1079.32 124.936C1079.32 122.515 1080.11 120.246 1081.7 118.128C1083.36 116.009 1085.44 114.345 1087.94 113.135C1090.51 111.849 1093.05 111.206 1095.54 111.206C1098.34 111.206 1101.03 111.887 1103.6 113.248C1106.17 114.534 1107.46 116.047 1107.46 117.787C1107.46 118.619 1107.16 119.452 1106.55 120.284C1105.94 121.116 1105.04 121.797 1103.83 122.326C1102.77 120.511 1101.63 119.149 1100.42 118.241C1099.29 117.333 1097.89 116.879 1096.22 116.879C1094.41 116.879 1092.82 117.409 1091.46 118.468C1090.1 119.452 1089.41 120.851 1089.41 122.667C1089.41 124.255 1089.98 125.73 1091.12 127.092C1092.25 128.378 1093.99 129.967 1096.34 131.858C1099.14 134.128 1101.22 136.132 1102.58 137.872C1104.02 139.537 1104.73 141.541 1104.73 143.887C1104.73 146.534 1103.75 149.106 1101.78 151.603C1099.89 154.099 1097.36 156.142 1094.18 157.731C1091.08 159.244 1087.75 160 1084.19 160Z" fill="#8C1105"/>
<path d="M1161.32 138.553C1161.77 139.158 1162 139.801 1162 140.482C1162 141.012 1161.85 141.806 1161.55 142.865C1160.49 145.286 1158.22 147.82 1154.74 150.468C1151.26 153.116 1147.32 155.31 1142.94 157.05C1138.62 158.79 1134.84 159.66 1131.59 159.66C1127.96 159.66 1125.12 158.563 1123.08 156.369C1121.11 154.175 1120.13 151.225 1120.13 147.518C1120.13 143.433 1121.64 133.56 1124.67 117.901L1113.43 118.355C1113.36 118.355 1113.21 118.165 1112.98 117.787C1112.75 117.409 1112.6 117.106 1112.52 116.879C1113.73 114.459 1114.72 112.719 1115.47 111.66H1125.8L1131.02 85.5603C1135.86 82.8369 1140.33 81.0591 1144.41 80.2269C1144.71 80.2269 1145.05 80.4539 1145.43 80.9078C1145.89 81.2861 1146.11 81.6265 1146.11 81.9291C1143.09 83.3664 1141.23 85.7116 1140.55 88.9645C1139.49 93.6548 1137.94 101.258 1135.9 111.773L1157.23 111.887C1157.16 112.189 1157.12 112.643 1157.12 113.248C1157.2 113.853 1157.23 114.307 1157.23 114.61C1157.23 115.291 1157.04 115.783 1156.67 116.085C1156.29 116.388 1155.72 116.539 1154.96 116.539L1134.88 117.447C1132 132.501 1130.57 142.033 1130.57 146.043C1130.57 148.085 1131.1 149.712 1132.16 150.922C1133.21 152.132 1134.88 152.738 1137.15 152.738C1140.55 152.738 1144.37 151.452 1148.61 148.879C1152.85 146.307 1157.08 142.865 1161.32 138.553Z" fill="#8C1105"/>
<path d="M337.207 72.9645C342.805 72.9645 345.604 75.0071 345.604 79.0922C345.604 80.0757 345.453 81.0213 345.15 81.9291C344.848 82.7612 344.507 83.4043 344.129 83.8582C342.767 83.3286 340.687 83.0638 337.888 83.0638C329.718 83.0638 321.925 85.8629 314.512 91.461C307.173 96.9835 300.894 104.284 295.674 113.362C290.53 122.364 287.05 131.858 285.235 141.844C284.856 144.113 284.365 147.82 283.759 152.965L283.306 156.482C283.154 157.314 282.889 157.882 282.511 158.184C282.209 158.411 281.755 158.525 281.149 158.525C278.577 158.525 276.232 158.6 274.114 158.752C272.071 158.979 270.369 159.395 269.007 160C268.629 159.47 268.44 159.054 268.44 158.752C271.466 153.759 273.773 147.215 275.362 139.121C277.026 131.026 277.859 123.499 277.859 116.539C277.859 107.915 276.459 101.106 273.66 96.1135C270.861 91.0449 266.473 88.5106 260.497 88.5106C256.865 88.5106 253.915 89.4563 251.646 91.3475C249.452 93.1631 247.106 95.9622 244.61 99.7447C243.778 99.4421 243.135 98.9125 242.681 98.156C242.227 97.3239 242 96.4161 242 95.4326C242 93.3901 242.832 91.0071 244.496 88.2837C246.236 85.4846 248.657 83.1017 251.759 81.1348C254.936 79.0922 258.605 78.0709 262.766 78.0709C270.029 78.0709 275.589 81.2861 279.447 87.7163C283.306 94.0709 285.235 102.733 285.235 113.702C285.235 115.064 285.159 117.106 285.008 119.83C288.488 111.811 293.14 104.208 298.965 97.0213C304.866 89.7589 311.183 83.9338 317.916 79.5461C324.725 75.1584 331.155 72.9645 337.207 72.9645Z" stroke="#8C1105" stroke-width="2" mask="url(#path-7-outside-1_21_14)"/>
<path d="M381.939 132.539C383.225 133.144 383.868 134.014 383.868 135.149C383.868 138.553 381.863 142.147 377.854 145.929C373.92 149.636 369.003 152.775 363.102 155.348C357.277 157.844 351.868 159.092 346.875 159.092C342.789 159.092 339.31 158.26 336.435 156.596C333.56 154.931 331.366 153.078 329.853 151.035C328.416 148.917 327.697 147.366 327.697 146.383C328.227 144.416 328.718 142.071 329.172 139.348C329.702 136.624 330.08 134.733 330.307 133.674C330.534 132.312 330.799 130.723 331.101 128.908C331.48 127.017 331.934 124.861 332.463 122.44C332.766 120.927 334.09 119.262 336.435 117.447C338.78 115.556 341.428 114.005 344.378 112.794C347.404 111.508 349.901 110.865 351.868 110.865C353.532 110.865 355.499 111.319 357.768 112.227C360.114 113.135 362.118 114.421 363.783 116.085C365.447 117.674 366.279 119.565 366.279 121.759C366.279 124.558 364.88 127.281 362.081 129.929C359.357 132.577 355.877 134.771 351.641 136.511C347.404 138.175 343.243 139.083 339.158 139.234L338.25 144C338.477 146.345 339.574 148.388 341.541 150.128C343.508 151.792 346.459 152.624 350.392 152.624C354.175 152.624 358.109 151.754 362.194 150.014C366.355 148.274 370.175 145.891 373.655 142.865C377.211 139.764 379.972 136.322 381.939 132.539ZM350.846 115.631C348.955 115.631 347.102 116.539 345.286 118.355C343.546 120.17 342.449 121.986 341.995 123.801L340.066 134.128C344.605 133.825 348.463 132.501 351.641 130.156C354.818 127.811 356.407 125.05 356.407 121.872C356.407 119.981 355.839 118.468 354.705 117.333C353.645 116.199 352.359 115.631 350.846 115.631ZM384.435 64C385.268 64 386.516 64.4161 388.18 65.2482C389.92 66.0047 390.79 66.6856 390.79 67.2908C390.79 67.5934 390.336 68.1608 389.428 68.9929L374.336 81.0213C373.201 81.8534 372.445 82.4586 372.066 82.8369C371.613 83.2151 371.083 83.4043 370.478 83.4043C369.873 83.4043 369.192 83.026 368.435 82.2695C371.991 78.4113 374.639 75.4232 376.379 73.305C378.194 71.1111 380.388 68.3121 382.96 64.9078C383.414 64.3026 383.906 64 384.435 64ZM357.995 75.5745C359.584 75.5745 360.719 76.1418 361.4 77.2766C362.459 78.9409 364.01 82.4586 366.052 87.8298C368.095 93.2009 369.116 96.5295 369.116 97.8156C369.116 98.7234 368.36 99.6312 366.847 100.539C365.334 101.371 363.934 101.787 362.648 101.787C360.53 94.2979 358.563 88.435 356.747 84.1986C352.057 89.7967 348.199 94.9031 345.172 99.5177C343.811 99.3664 342.638 98.9125 341.655 98.156C340.671 97.3239 340.217 96.4161 340.293 95.4326C340.369 94.7518 340.709 93.9575 341.314 93.0496C344.113 88.5106 348.312 83.4421 353.91 77.844C354.894 76.8605 355.612 76.2553 356.066 76.0284C356.52 75.7258 357.163 75.5745 357.995 75.5745Z" stroke="#8C1105" stroke-width="2" mask="url(#path-7-outside-1_21_14)"/>
<path d="M438.447 133.106C439.128 133.106 439.657 133.371 440.035 133.901C440.414 134.355 440.603 134.96 440.603 135.716C440.603 137.759 439.317 140.785 436.745 144.794C434.248 148.728 430.882 152.246 426.645 155.348C422.409 158.374 417.718 159.887 412.574 159.887C408.64 159.887 405.576 158.941 403.383 157.05C401.264 155.083 400.205 152.511 400.205 149.333C400.205 147.442 400.546 145.097 401.226 142.298C401.983 139.499 403.004 135.981 404.29 131.745C405.501 127.811 406.484 124.293 407.241 121.191C407.165 120.738 406.862 120.511 406.333 120.511C405.274 120.511 403.231 121.872 400.205 124.596C397.179 127.319 394.191 130.383 391.24 133.787C388.29 137.191 386.474 139.726 385.794 141.39C384.432 147.518 383.6 151.603 383.297 153.645C382.995 155.612 382.805 156.709 382.73 156.936C382.654 157.163 382.578 157.466 382.503 157.844C382.427 158.147 382.314 158.336 382.162 158.411C382.087 158.487 381.935 158.525 381.708 158.525C380.574 158.525 378.796 158.449 376.375 158.298C373.954 158.147 372.744 157.92 372.744 157.617C373.198 154.894 374.37 149.22 376.262 140.596C376.64 138.478 376.829 137.456 376.829 137.532L381.935 112.567C382.011 112.038 382.162 111.735 382.389 111.66C382.692 111.508 383.259 111.433 384.091 111.433C387.647 111.433 390.219 112 391.808 113.135C391.732 113.437 391.316 115.329 390.56 118.809C389.803 122.213 388.706 126.563 387.269 131.858C391.505 126.714 395.855 122.061 400.319 117.901C404.782 113.74 407.808 111.66 409.397 111.66C410.229 111.66 411.893 112.076 414.39 112.908C416.962 113.74 418.324 114.421 418.475 114.95L416.432 122.667C414.465 129.702 412.99 135.3 412.007 139.461C411.023 143.622 410.532 146.799 410.532 148.993C410.532 152.473 412.158 154.213 415.411 154.213C418.059 154.213 420.934 153.191 424.035 151.149C427.213 149.031 430.087 146.345 432.659 143.092C435.307 139.764 437.236 136.435 438.447 133.106Z" stroke="#8C1105" stroke-width="2" mask="url(#path-7-outside-1_21_14)"/>
<path d="M480.071 159.887C476.516 159.887 473.074 159.508 469.745 158.752C466.492 157.995 463.769 157.05 461.575 155.915C459.457 154.78 458.133 153.683 457.603 152.624C457.981 150.733 458.36 148.047 458.738 144.567C459.192 141.012 459.457 138.402 459.532 136.738C460.364 136.057 461.423 135.641 462.71 135.489C463.012 141.541 464.563 146.194 467.362 149.447C470.161 152.624 474.209 154.213 479.504 154.213C485.027 154.213 489.414 152.586 492.667 149.333C495.996 146.08 497.66 141.92 497.66 136.851C497.66 134.355 497.206 132.236 496.299 130.496C495.466 128.681 494.294 127.13 492.781 125.844C491.343 124.482 489.263 122.894 486.54 121.078C482.757 118.43 479.693 116.123 477.348 114.156C475.078 112.113 473.263 109.844 471.901 107.348C470.539 104.775 469.859 101.863 469.859 98.6099C469.859 94.4492 470.993 90.8558 473.263 87.8298C475.608 84.7281 478.748 82.383 482.681 80.7943C486.691 79.13 491.154 78.2979 496.072 78.2979C500.838 78.2979 505.188 79.0166 509.122 80.4539C513.055 81.8156 515.552 83.2908 516.611 84.8794C513.585 91.6879 511.807 96.2648 511.278 98.6099C510.143 99.0638 508.781 99.2908 507.192 99.2908C508.176 96.643 508.668 94.3357 508.668 92.3688C508.668 89.3428 507.495 87.0355 505.15 85.4468C502.88 83.8582 499.892 83.0638 496.185 83.0638C490.89 83.0638 486.956 84.5012 484.384 87.3759C481.887 90.2506 480.639 93.5792 480.639 97.3617C480.639 100.993 481.774 104.057 484.043 106.553C486.313 109.05 489.263 111.395 492.894 113.589C496.828 116.009 499.93 118.128 502.199 119.943C504.469 121.683 506.36 123.877 507.873 126.525C509.462 129.173 510.256 132.35 510.256 136.057C510.256 140.974 508.895 145.248 506.171 148.879C503.448 152.435 499.779 155.158 495.164 157.05C490.625 158.941 485.594 159.887 480.071 159.887Z" stroke="#8C1105" stroke-width="2" mask="url(#path-7-outside-1_21_14)"/>
<path d="M589.214 131.177C590.576 131.177 591.257 132.312 591.257 134.582C591.257 138.213 589.781 142.033 586.831 146.043C583.956 149.976 580.363 153.267 576.051 155.915C571.738 158.563 567.767 159.887 564.136 159.887C561.261 159.887 558.727 159.054 556.533 157.39C554.414 155.726 552.901 153.57 551.994 150.922C549.951 153.494 547.492 155.574 544.618 157.163C541.743 158.676 539.171 159.433 536.901 159.433C534.934 159.433 532.967 158.865 531 157.731C529.033 156.52 527.369 155.007 526.007 153.191C524.646 151.376 523.927 149.56 523.851 147.745C525.591 140.028 527.142 132.539 528.504 125.277C528.806 123.764 530.093 121.872 532.362 119.603C534.632 117.258 537.355 115.253 540.532 113.589C543.71 111.924 546.736 111.092 549.611 111.092C552.258 111.092 554.944 111.887 557.667 113.475C558.197 112.189 558.613 111.395 558.916 111.092C559.218 110.714 559.672 110.487 560.277 110.411L570.15 109.844L570.49 110.071C569.582 110.827 568.902 111.66 568.448 112.567C567.994 113.475 567.578 114.534 567.199 115.745C565.838 120.359 564.438 125.957 563.001 132.539C561.563 139.045 560.845 143.546 560.845 146.043C560.845 148.161 561.336 150.09 562.32 151.83C563.379 153.57 565.006 154.44 567.199 154.44C569.469 154.44 572.079 153.456 575.029 151.489C578.055 149.522 580.854 146.761 583.427 143.206C586.074 139.65 588.003 135.641 589.214 131.177ZM540.532 152.624C541.592 152.624 542.878 152.095 544.391 151.035C545.904 149.976 547.303 148.539 548.589 146.723C549.951 144.908 550.897 142.903 551.426 140.709L553.242 132.199C554.604 125.239 555.549 120.662 556.079 118.468C554.112 117.56 552.031 117.106 549.838 117.106C546.282 117.106 543.596 118.241 541.781 120.511C540.041 122.704 538.868 125.201 538.263 128L534.745 145.135C534.896 147.026 535.577 148.766 536.788 150.355C537.998 151.868 539.246 152.624 540.532 152.624ZM554.263 103.376C553.355 103.376 552.523 103.035 551.767 102.355C550.254 101.144 547.681 98.4586 544.05 94.2979C540.495 90.1371 537.96 86.8463 536.447 84.4255C537.204 82.9125 538.263 81.513 539.625 80.2269C540.986 78.9409 542.197 78.2979 543.256 78.2979C543.71 78.2979 544.05 78.5626 544.277 79.0922C546.849 84.0851 548.968 88.1324 550.632 91.234C552.372 94.26 554.566 97.8156 557.213 101.901C556.457 102.884 555.473 103.376 554.263 103.376Z" stroke="#8C1105" stroke-width="2" mask="url(#path-7-outside-1_21_14)"/>
<path d="M650.098 117.333C651.081 117.712 651.573 118.506 651.573 119.716C651.573 121.835 650.552 123.877 648.509 125.844C646.466 127.735 643.781 129.286 640.452 130.496C637.199 131.707 633.833 132.312 630.353 132.312C627.629 132.312 624.83 131.896 621.955 131.064C621.88 131.593 621.766 132.199 621.615 132.879C621.464 133.485 621.312 134.241 621.161 135.149C620.934 136.359 620.48 138.591 619.799 141.844C619.194 145.097 618.816 147.404 618.665 148.766C618.059 150.052 616.773 151.565 614.806 153.305C612.84 154.969 610.532 156.407 607.884 157.617C605.237 158.827 602.627 159.433 600.054 159.433C597.558 159.433 595.024 158.827 592.452 157.617C589.879 156.407 587.723 154.78 585.983 152.738C584.319 150.619 583.487 148.35 583.487 145.929C584.546 141.844 585.34 138.478 585.87 135.83C586.399 133.182 587.042 129.4 587.799 124.482C588.102 122.667 589.312 120.738 591.43 118.695C593.624 116.577 596.272 114.837 599.374 113.475C602.551 112.113 605.653 111.433 608.679 111.433H610.154C610.381 110.071 610.91 109.087 611.743 108.482C612.575 107.801 613.823 107.461 615.487 107.461C617.984 107.461 619.572 107.953 620.253 108.936C619.497 112.113 619.119 114.383 619.119 115.745C619.119 119.149 620.329 121.835 622.75 123.801C625.246 125.768 628.688 126.752 633.076 126.752C636.783 126.752 640.187 125.995 643.289 124.482C646.391 122.969 648.66 120.586 650.098 117.333ZM601.189 153.305C602.702 153.305 604.253 152.775 605.842 151.716C607.43 150.582 608.49 149.333 609.019 147.972C609.776 143.887 610.494 140.407 611.175 137.532C611.402 136.473 611.743 134.771 612.196 132.426C612.726 130.08 613.142 127.962 613.445 126.071C611.553 124.18 610.381 121.91 609.927 119.262C609.927 118.96 609.851 118.695 609.7 118.468C609.624 118.241 609.473 118.09 609.246 118.014C608.792 117.863 608.149 117.787 607.317 117.787C604.745 117.787 602.627 118.544 600.962 120.057C599.298 121.494 598.239 123.385 597.785 125.73C596.196 133.144 594.759 139.764 593.473 145.589C593.548 147.934 594.418 149.825 596.083 151.262C597.747 152.624 599.449 153.305 601.189 153.305Z" stroke="#8C1105" stroke-width="2" mask="url(#path-7-outside-1_21_14)"/>
<path d="M700.801 160C697.85 160 693.5 159.697 687.751 159.092C683.363 158.638 679.959 158.336 677.538 158.184C676.554 158.109 675.798 157.995 675.268 157.844C674.814 157.617 674.02 157.163 672.885 156.482C673.642 155.423 674.171 154.591 674.474 153.986C674.852 153.305 675.193 152.397 675.495 151.262C676.327 148.009 678.521 136.813 682.077 117.674C685.632 98.4586 687.41 88.1324 687.41 86.695C687.41 86.3168 687.259 86.0142 686.956 85.7872C686.729 85.4846 686.351 85.3333 685.822 85.3333C685.443 85.3333 683.59 85.6359 680.261 86.2411C675.041 87.2246 671.561 87.7163 669.821 87.7163C667.098 87.7163 665.736 86.7329 665.736 84.766C665.736 83.9338 665.925 82.9125 666.304 81.7021C666.758 80.4161 667.174 79.4326 667.552 78.7518C668.611 79.13 669.708 79.3948 670.843 79.5461C672.053 79.6974 673.907 79.7731 676.403 79.7731C681.396 79.7731 687.524 79.5083 694.786 78.9787C702.503 78.5248 707.836 78.2979 710.786 78.2979C724.025 78.2979 733.974 81.0969 740.631 86.695C747.364 92.2175 750.73 100.426 750.73 111.319C750.73 119.338 748.952 127.092 745.397 134.582C741.841 141.995 736.319 148.085 728.829 152.851C721.34 157.617 711.997 160 700.801 160ZM703.184 153.986C710.597 153.986 717.028 151.981 722.475 147.972C727.997 143.887 732.196 138.553 735.07 131.972C738.021 125.314 739.496 118.203 739.496 110.638C739.496 101.333 737.037 94.5248 732.12 90.2128C727.203 85.8251 719.373 83.6312 708.63 83.6312C705.756 83.6312 703.675 83.7825 702.389 84.0851C701.103 84.3877 700.233 84.8416 699.779 85.4468C699.401 86.052 699.061 86.9976 698.758 88.2837C697.396 95.0165 693.954 112.757 688.432 141.504C688.28 142.109 688.015 143.281 687.637 145.021C687.335 146.761 687.183 148.047 687.183 148.879C687.183 149.485 687.335 149.976 687.637 150.355C687.94 150.657 688.469 150.998 689.226 151.376C690.89 152.132 692.971 152.775 695.467 153.305C698.039 153.759 700.611 153.986 703.184 153.986Z" stroke="#8C1105" stroke-width="2" mask="url(#path-7-outside-1_21_14)"/>
<path d="M828.357 131.177C829.719 131.177 830.4 132.312 830.4 134.582C830.4 138.213 828.925 142.033 825.974 146.043C823.099 149.976 819.506 153.267 815.194 155.915C810.882 158.563 806.91 159.887 803.279 159.887C800.404 159.887 797.87 159.054 795.676 157.39C793.558 155.726 792.045 153.57 791.137 150.922C789.094 153.494 786.636 155.574 783.761 157.163C780.886 158.676 778.314 159.433 776.044 159.433C774.077 159.433 772.111 158.865 770.144 157.731C768.177 156.52 766.512 155.007 765.151 153.191C763.789 151.376 763.07 149.56 762.995 147.745C764.735 140.028 766.285 132.539 767.647 125.277C767.95 123.764 769.236 121.872 771.505 119.603C773.775 117.258 776.498 115.253 779.676 113.589C782.853 111.924 785.879 111.092 788.754 111.092C791.402 111.092 794.087 111.887 796.811 113.475C797.34 112.189 797.756 111.395 798.059 111.092C798.362 110.714 798.815 110.487 799.421 110.411L809.293 109.844L809.634 110.071C808.726 110.827 808.045 111.66 807.591 112.567C807.137 113.475 806.721 114.534 806.343 115.745C804.981 120.359 803.581 125.957 802.144 132.539C800.707 139.045 799.988 143.546 799.988 146.043C799.988 148.161 800.48 150.09 801.463 151.83C802.522 153.57 804.149 154.44 806.343 154.44C808.612 154.44 811.222 153.456 814.173 151.489C817.199 149.522 819.998 146.761 822.57 143.206C825.218 139.65 827.147 135.641 828.357 131.177ZM779.676 152.624C780.735 152.624 782.021 152.095 783.534 151.035C785.047 149.976 786.446 148.539 787.733 146.723C789.094 144.908 790.04 142.903 790.569 140.709L792.385 132.199C793.747 125.239 794.692 120.662 795.222 118.468C793.255 117.56 791.175 117.106 788.981 117.106C785.425 117.106 782.74 118.241 780.924 120.511C779.184 122.704 778.011 125.201 777.406 128L773.888 145.135C774.04 147.026 774.721 148.766 775.931 150.355C777.141 151.868 778.39 152.624 779.676 152.624Z" stroke="#8C1105" stroke-width="2" mask="url(#path-7-outside-1_21_14)"/>
<path d="M906.83 130.837C907.738 130.837 908.456 131.102 908.986 131.631C909.516 132.085 909.78 132.804 909.78 133.787C909.78 136.057 908.57 139.234 906.149 143.319C903.728 147.404 900.551 150.998 896.617 154.099C892.683 157.201 888.485 158.752 884.021 158.752C880.012 158.752 876.532 157.541 873.581 155.121C870.706 152.624 869.269 149.598 869.269 146.043C869.269 144.076 869.685 141.541 870.517 138.44C871.425 135.338 872.56 131.745 873.922 127.66C875.132 123.726 875.813 121.456 875.964 120.851C875.964 120.624 875.813 120.435 875.51 120.284C875.208 120.057 874.905 119.943 874.603 119.943C873.165 119.943 870.669 122.44 867.113 127.433C863.557 132.35 860.872 136.548 859.056 140.028C858.3 142.449 856.938 147.896 854.971 156.369C854.668 157.655 854.404 158.525 854.177 158.979C854.025 159.433 853.761 159.66 853.382 159.66C852.928 159.66 851.983 159.433 850.545 158.979C849.184 158.6 847.935 158.109 846.801 157.504C845.742 156.898 845.212 156.293 845.212 155.688C845.212 154.704 845.552 152.965 846.233 150.468C847.973 144.113 849.335 139.007 850.318 135.149C851.302 131.215 852.361 126.449 853.496 120.851C853.042 120.246 852.475 119.943 851.794 119.943C850.659 119.943 848.995 121.154 846.801 123.574C844.682 125.92 842.375 129.059 839.879 132.993C837.458 136.851 835.264 140.898 833.297 145.135C831.935 150.052 830.801 154.856 829.893 159.546C828.909 159.546 827.094 159.281 824.446 158.752C821.874 158.222 820.588 157.655 820.588 157.05C820.588 156.52 820.966 154.856 821.722 152.057L822.29 149.106C822.592 147.593 823.576 143.054 825.24 135.489C826.904 127.849 828.72 120.322 830.687 112.908C830.838 112.227 831.027 111.735 831.254 111.433C831.481 111.13 831.822 110.979 832.276 110.979C832.881 110.979 834.47 111.243 837.042 111.773C839.614 112.227 841.013 112.567 841.24 112.794C839.803 118.998 838.214 125.39 836.474 131.972C838.895 127.508 841.316 123.839 843.737 120.965C846.233 118.09 848.465 116.047 850.432 114.837C852.475 113.551 854.063 112.908 855.198 112.908C856.181 112.908 857.884 113.4 860.304 114.383C862.801 115.291 864.049 116.009 864.049 116.539C863.444 120.17 862.498 124.482 861.212 129.475C869.156 117.598 874.905 111.66 878.461 111.66C879.822 111.66 881.638 112.113 883.908 113.021C886.177 113.853 887.312 114.799 887.312 115.858C886.48 118.506 886.101 119.754 886.177 119.603C884.135 126.109 882.546 131.442 881.411 135.603C880.352 139.764 879.822 143.13 879.822 145.702C879.822 150.392 882.016 152.738 886.404 152.738C890.641 152.738 894.65 150.733 898.433 146.723C902.215 142.714 905.014 137.418 906.83 130.837Z" stroke="#8C1105" stroke-width="2" mask="url(#path-7-outside-1_21_14)"/>
<path d="M914.006 159.319C910.526 159.319 907.765 158.411 905.723 156.596C903.68 154.704 902.659 151.716 902.659 147.631C902.659 146.648 902.697 145.891 902.772 145.362L906.403 128.113C907.917 120.397 908.9 115.669 909.354 113.929C909.732 113.021 910.451 112.303 911.51 111.773C912.569 111.168 913.779 110.865 915.141 110.865C916.352 110.865 917.335 111.13 918.092 111.66C918.924 112.113 919.378 112.643 919.453 113.248C917.865 120.284 915.709 130.686 912.985 144.454C912.909 145.059 912.872 145.853 912.872 146.837C912.872 148.955 913.326 150.468 914.233 151.376C915.141 152.284 916.465 152.738 918.205 152.738C921.231 152.738 924.484 151.678 927.964 149.56C931.444 147.366 934.659 144.681 937.61 141.504C940.636 138.251 942.981 135.035 944.645 131.858C945.78 132.312 946.347 133.069 946.347 134.128C946.347 134.884 946.196 135.678 945.893 136.511C945.591 137.267 945.402 137.759 945.326 137.986C943.889 141.39 941.392 144.757 937.837 148.085C934.357 151.414 930.423 154.137 926.035 156.255C921.723 158.298 917.713 159.319 914.006 159.319ZM916.503 99.0638C914.687 99.0638 913.288 98.5343 912.304 97.4752C911.396 96.4161 910.943 94.9787 910.943 93.1631C910.943 90.818 911.623 88.8511 912.985 87.2624C914.347 85.6738 916.2 84.8794 918.546 84.8794C920.361 84.8794 921.761 85.3712 922.744 86.3546C923.728 87.3381 924.219 88.7376 924.219 90.5532C924.219 92.8983 923.501 94.9031 922.063 96.5674C920.626 98.2317 918.772 99.0638 916.503 99.0638Z" stroke="#8C1105" stroke-width="2" mask="url(#path-7-outside-1_21_14)"/>
<path d="M1020.17 67.1773C1021.68 67.1773 1023.5 67.4799 1025.61 68.0851C1027.81 68.6147 1029.74 69.2577 1031.4 70.0142C1033.14 70.695 1034.01 71.1489 1034.01 71.3759C1028.19 71.3759 1023.46 73.9858 1019.83 79.2057C1016.27 84.3499 1013.36 91.2719 1011.09 99.9716C1008.89 108.596 1006.17 121.456 1002.92 138.553C1000.8 149.674 999.589 156.028 999.287 157.617C998.53 158.071 997.396 158.487 995.883 158.865C994.445 159.243 993.121 159.433 991.911 159.433C985.405 146.421 978.445 132.652 971.031 118.128C968.913 114.118 967.022 110.411 965.357 107.007C963.693 103.603 962.142 100.501 960.705 97.7021C959.04 105.04 957.641 111.697 956.506 117.674C955.447 123.574 954.237 130.761 952.875 139.234C950.908 151.035 949.773 157.882 949.471 159.773H944.364C942.851 159.773 941.678 159.433 940.846 158.752C940.09 158.071 939.712 157.277 939.712 156.369C939.712 155.083 940.544 150.809 942.208 143.546C943.872 136.208 945.688 128.53 947.655 120.511C949.471 113.248 951.097 106.402 952.534 99.9716C954.047 93.5414 954.804 89.8345 954.804 88.8511C954.804 88.2459 954.539 87.8298 954.01 87.6028C953.48 87.3002 952.61 87.1489 951.4 87.1489L947.541 87.2624C945.574 87.4137 944.213 87.4894 943.456 87.4894C942.246 87.4894 941.414 87.3381 940.96 87.0355C940.582 86.7329 940.392 86.0898 940.392 85.1064C940.392 83.2908 940.695 81.5887 941.3 80C942.435 80.5295 943.872 80.9456 945.612 81.2482C947.428 81.5508 949.168 81.7021 950.832 81.7021C954.01 81.7021 957.338 81.0591 960.818 79.7731C961.196 79.7731 961.575 79.9622 961.953 80.3404C962.331 80.643 962.672 81.0591 962.974 81.5887L971.599 98.9504C977.499 110.903 984.913 125.806 993.84 143.66C998.303 120.813 1001.59 104.662 1003.71 95.2057C1005.91 85.7494 1008.25 78.7139 1010.75 74.0993C1013.24 69.4846 1016.38 67.1773 1020.17 67.1773Z" stroke="#8C1105" stroke-width="2" mask="url(#path-7-outside-1_21_14)"/>
<path d="M1078.98 132.539C1080.26 133.144 1080.91 134.014 1080.91 135.149C1080.91 138.553 1078.9 142.147 1074.89 145.929C1070.96 149.636 1066.04 152.775 1060.14 155.348C1054.32 157.844 1048.91 159.092 1043.91 159.092C1039.83 159.092 1036.35 158.26 1033.47 156.596C1030.6 154.931 1028.41 153.078 1026.89 151.035C1025.46 148.917 1024.74 147.366 1024.74 146.383C1025.27 144.416 1025.76 142.071 1026.21 139.348C1026.74 136.624 1027.12 134.733 1027.35 133.674C1027.57 132.312 1027.84 130.723 1028.14 128.908C1028.52 127.017 1028.97 124.861 1029.5 122.44C1029.81 120.927 1031.13 119.262 1033.47 117.447C1035.82 115.556 1038.47 114.005 1041.42 112.794C1044.44 111.508 1046.94 110.865 1048.91 110.865C1050.57 110.865 1052.54 111.319 1054.81 112.227C1057.15 113.135 1059.16 114.421 1060.82 116.085C1062.49 117.674 1063.32 119.565 1063.32 121.759C1063.32 124.558 1061.92 127.281 1059.12 129.929C1056.4 132.577 1052.92 134.771 1048.68 136.511C1044.44 138.175 1040.28 139.083 1036.2 139.234L1035.29 144C1035.52 146.345 1036.61 148.388 1038.58 150.128C1040.55 151.792 1043.5 152.624 1047.43 152.624C1051.21 152.624 1055.15 151.754 1059.23 150.014C1063.39 148.274 1067.21 145.891 1070.69 142.865C1074.25 139.764 1077.01 136.322 1078.98 132.539ZM1047.89 115.631C1045.99 115.631 1044.14 116.539 1042.33 118.355C1040.59 120.17 1039.49 121.986 1039.03 123.801L1037.11 134.128C1041.64 133.825 1045.5 132.501 1048.68 130.156C1051.86 127.811 1053.45 125.05 1053.45 121.872C1053.45 119.981 1052.88 118.468 1051.74 117.333C1050.68 116.199 1049.4 115.631 1047.89 115.631Z" stroke="#8C1105" stroke-width="2" mask="url(#path-7-outside-1_21_14)"/>
<path d="M1084.19 160C1081.4 160 1078.82 159.508 1076.48 158.525C1074.13 157.541 1072.28 156.293 1070.92 154.78C1069.56 153.191 1068.88 151.565 1068.88 149.901C1068.88 148.388 1069.41 147.215 1070.46 146.383C1071.52 145.475 1072.73 144.946 1074.1 144.794C1075 147.82 1076.36 150.203 1078.18 151.943C1080 153.683 1082.23 154.553 1084.88 154.553C1087.6 154.553 1089.83 153.721 1091.57 152.057C1093.31 150.317 1094.18 148.312 1094.18 146.043C1094.18 144.151 1093.61 142.525 1092.48 141.163C1091.34 139.726 1089.53 138.024 1087.03 136.057C1084.46 134.014 1082.53 132.199 1081.24 130.61C1079.96 129.021 1079.32 127.13 1079.32 124.936C1079.32 122.515 1080.11 120.246 1081.7 118.128C1083.36 116.009 1085.44 114.345 1087.94 113.135C1090.51 111.849 1093.05 111.206 1095.54 111.206C1098.34 111.206 1101.03 111.887 1103.6 113.248C1106.17 114.534 1107.46 116.047 1107.46 117.787C1107.46 118.619 1107.16 119.452 1106.55 120.284C1105.94 121.116 1105.04 121.797 1103.83 122.326C1102.77 120.511 1101.63 119.149 1100.42 118.241C1099.29 117.333 1097.89 116.879 1096.22 116.879C1094.41 116.879 1092.82 117.409 1091.46 118.468C1090.1 119.452 1089.41 120.851 1089.41 122.667C1089.41 124.255 1089.98 125.73 1091.12 127.092C1092.25 128.378 1093.99 129.967 1096.34 131.858C1099.14 134.128 1101.22 136.132 1102.58 137.872C1104.02 139.537 1104.73 141.541 1104.73 143.887C1104.73 146.534 1103.75 149.106 1101.78 151.603C1099.89 154.099 1097.36 156.142 1094.18 157.731C1091.08 159.244 1087.75 160 1084.19 160Z" stroke="#8C1105" stroke-width="2" mask="url(#path-7-outside-1_21_14)"/>
<path d="M1161.32 138.553C1161.77 139.158 1162 139.801 1162 140.482C1162 141.012 1161.85 141.806 1161.55 142.865C1160.49 145.286 1158.22 147.82 1154.74 150.468C1151.26 153.116 1147.32 155.31 1142.94 157.05C1138.62 158.79 1134.84 159.66 1131.59 159.66C1127.96 159.66 1125.12 158.563 1123.08 156.369C1121.11 154.175 1120.13 151.225 1120.13 147.518C1120.13 143.433 1121.64 133.56 1124.67 117.901L1113.43 118.355C1113.36 118.355 1113.21 118.165 1112.98 117.787C1112.75 117.409 1112.6 117.106 1112.52 116.879C1113.73 114.459 1114.72 112.719 1115.47 111.66H1125.8L1131.02 85.5603C1135.86 82.8369 1140.33 81.0591 1144.41 80.2269C1144.71 80.2269 1145.05 80.4539 1145.43 80.9078C1145.89 81.2861 1146.11 81.6265 1146.11 81.9291C1143.09 83.3664 1141.23 85.7116 1140.55 88.9645C1139.49 93.6548 1137.94 101.258 1135.9 111.773L1157.23 111.887C1157.16 112.189 1157.12 112.643 1157.12 113.248C1157.2 113.853 1157.23 114.307 1157.23 114.61C1157.23 115.291 1157.04 115.783 1156.67 116.085C1156.29 116.388 1155.72 116.539 1154.96 116.539L1134.88 117.447C1132 132.501 1130.57 142.033 1130.57 146.043C1130.57 148.085 1131.1 149.712 1132.16 150.922C1133.21 152.132 1134.88 152.738 1137.15 152.738C1140.55 152.738 1144.37 151.452 1148.61 148.879C1152.85 146.307 1157.08 142.865 1161.32 138.553Z" stroke="#8C1105" stroke-width="2" mask="url(#path-7-outside-1_21_14)"/>
</svg>
